<svg width="895" height="824" viewBox="0 0 895 824" fill="none" xmlns="http://www.w3.org/2000/svg">
  <path d="M431.858 653.298L431.848 653.31L431.837 653.321C378.964 708.487 313.792 753.235 241.235 782.048C176.69 807.788 106.603 822.5 33.4363 822.5C-189.831 822.5 -377.238 674.123 -501.232 495.424L-502.767 493.212L-500.079 493.071C-453.693 490.637 -404.814 477.855 -355.883 457.122L-355.881 457.121C-267.817 419.928 -181.526 351.608 -98.1051 284.339L-98.0946 284.331C-88.8214 276.989 -79.6509 269.632 -70.5435 262.326C-59.2185 253.24 -47.9912 244.233 -36.7855 235.431C140.843 91.6789 287.701 25.4231 408.129 7.03126C528.601 -11.3673 622.517 18.1508 694.163 65.7194C765.774 113.265 815.082 178.803 846.477 232.407C862.179 259.215 873.411 283.056 880.719 300.201C84.374 308.773 887.048 315.673 888.81 320.434C889.69 322.814 890.343 324.66 890.777 325.913C890.993 326.539 891.155 327.018 891.263 327.34C891.317 327.502 891.358 327.624 891.385 327.707L891.416 327.801L891.424 327.826C891.426 327.832 891.427 327.835 890 328.297L891.427 327.835L892.063 329.797L890 329.797C732.97 329.797 597.799 406.431 510.518 549.754C483.255 594.523 458.883 623.906 431.858 653.298Z" stroke="#D9BB7F" stroke-opacity="0.2" stroke-width="3"/>
  </svg>
