<svg width="110" height="147" viewBox="0 0 110 147" fill="none" xmlns="http://www.w3.org/2000/svg">
<rect width="110" height="147" fill="#D9BB7F"/>
<path d="M81.743 31.7028L81.7432 31.7033C82.1524 32.9261 82.0702 34.2592 81.5137 35.4229C80.9571 36.5866 79.9693 37.4909 78.7569 37.9447C78.7568 37.9448 78.7567 37.9448 78.7566 37.9449L25.1555 57.9813L11.4165 44.2857L13.9231 41.787L28.1842 48.895L28.6303 49.1173L29.0763 48.895L43.9805 41.4664L45.5276 40.6953L44.0879 39.7386L23.1713 25.8382L28.6873 23.0889L58.0885 34.0795L58.4192 34.2032L58.7542 34.0918L75.4202 28.5503C76.6788 28.1327 78.0523 28.2306 79.2383 28.8223C80.4241 29.4139 81.3247 30.4504 81.743 31.7028ZM14.7261 67.5714H79.795V73H14.7261V67.5714Z" stroke="#F9F7F2" stroke-width="2"/>
<path d="M17.0859 97.8398C17.5143 97.8398 17.9336 97.8991 18.3438 98.0176C18.7539 98.1361 19.123 98.3184 19.4512 98.5645C19.7884 98.8105 20.0527 99.1204 20.2441 99.4941C20.4447 99.8587 20.5449 100.296 20.5449 100.807C20.5449 101.344 20.4082 101.809 20.1348 102.201C19.8704 102.584 19.5195 102.885 19.082 103.104C18.6445 103.313 18.1706 103.436 17.6602 103.473L20.9551 107H18.4531L15.2676 103.254V107H13.3672V97.8398H17.0859ZM15.2676 99.6172V101.928C15.4863 102.001 15.7279 102.06 15.9922 102.105C16.2656 102.142 16.5391 102.16 16.8125 102.16C17.3594 102.16 17.7923 102.051 18.1113 101.832C18.4395 101.604 18.6035 101.285 18.6035 100.875C18.6035 100.428 18.4303 100.109 18.084 99.918C17.7467 99.7174 17.332 99.6172 16.8398 99.6172H15.2676ZM28.4473 101.559V103.104H24.4004V105.318H28.9805V107H22.5V97.8398H28.9805V99.4805H24.4004V101.559H28.4473ZM35.4199 97.7715L39.6855 107H37.457L36.7598 105.291H33.1367L32.4395 107H30.2109L34.4766 97.7715H35.4199ZM34.9551 100.875L33.8066 103.678H36.1035L34.9551 100.875ZM44.7441 97.6211C45.7103 97.6211 46.5579 97.8171 47.2871 98.209C48.0163 98.6009 48.5814 99.1478 48.9824 99.8496C49.3926 100.551 49.5977 101.376 49.5977 102.324C49.5977 103.227 49.4062 104.047 49.0234 104.785C48.6406 105.514 48.0938 106.093 47.3828 106.521C46.6719 106.95 45.8242 107.164 44.8398 107.164C44.2109 107.164 43.582 107.132 42.9531 107.068C42.3333 107.005 41.7454 106.918 41.1895 106.809V97.9766C41.7546 97.8854 42.3333 97.8034 42.9258 97.7305C43.5182 97.6576 44.1243 97.6211 44.7441 97.6211ZM44.7852 99.3984C44.5117 99.3984 44.2246 99.4121 43.9238 99.4395C43.623 99.4668 43.3451 99.5033 43.0898 99.5488V105.236C43.3633 105.291 43.6458 105.332 43.9375 105.359C44.2383 105.378 44.5208 105.387 44.7852 105.387C45.3867 105.387 45.9017 105.259 46.3301 105.004C46.7585 104.74 47.0866 104.38 47.3145 103.924C47.5423 103.468 47.6562 102.958 47.6562 102.393C47.6562 101.809 47.5423 101.294 47.3145 100.848C47.0866 100.401 46.7585 100.05 46.3301 99.7949C45.9017 99.5306 45.3867 99.3984 44.7852 99.3984ZM59.3867 97.8398L55.8457 103.541V107H53.9043V103.637L50.3496 97.8398H52.5781L54.8613 101.695L57.1582 97.8398H59.3867ZM71.7461 97.8398V99.5488H68.8203V106.959H66.9336V99.5488H64.0078V97.8398H71.7461ZM77.3926 97.6348C78.0488 97.6348 78.6641 97.7533 79.2383 97.9902C79.8125 98.2181 80.3184 98.5462 80.7559 98.9746C81.2025 99.3939 81.5488 99.8952 81.7949 100.479C82.0501 101.062 82.1777 101.709 82.1777 102.42C82.1777 103.131 82.0501 103.778 81.7949 104.361C81.5488 104.945 81.2025 105.451 80.7559 105.879C80.3184 106.298 79.8125 106.626 79.2383 106.863C78.6641 107.091 78.0488 107.205 77.3926 107.205C76.7363 107.205 76.1165 107.091 75.5332 106.863C74.959 106.626 74.4486 106.298 74.002 105.879C73.5645 105.451 73.2181 104.945 72.9629 104.361C72.7168 103.778 72.5938 103.131 72.5938 102.42C72.5938 101.709 72.7168 101.062 72.9629 100.479C73.2181 99.8952 73.5645 99.3939 74.002 98.9746C74.4486 98.5462 74.959 98.2181 75.5332 97.9902C76.1165 97.7533 76.7363 97.6348 77.3926 97.6348ZM77.3926 99.4258C76.8457 99.4258 76.3535 99.5579 75.916 99.8223C75.4876 100.087 75.1504 100.442 74.9043 100.889C74.6582 101.335 74.5352 101.846 74.5352 102.42C74.5352 102.985 74.6582 103.495 74.9043 103.951C75.1504 104.398 75.4876 104.753 75.916 105.018C76.3535 105.273 76.8457 105.4 77.3926 105.4C77.9395 105.4 78.4271 105.273 78.8555 105.018C79.2839 104.753 79.6211 104.398 79.8672 103.951C80.1133 103.495 80.2363 102.985 80.2363 102.42C80.2363 101.846 80.1133 101.335 79.8672 100.889C79.6211 100.442 79.2839 100.087 78.8555 99.8223C78.4271 99.5579 77.9395 99.4258 77.3926 99.4258ZM15.8691 115.662C16.3978 115.662 16.8809 115.735 17.3184 115.881C17.7559 116.027 18.125 116.195 18.4258 116.387V118.26C18.0977 118.059 17.7467 117.872 17.373 117.699C16.9993 117.526 16.5755 117.439 16.1016 117.439C15.8646 117.439 15.6276 117.476 15.3906 117.549C15.1628 117.622 14.9714 117.731 14.8164 117.877C14.6706 118.023 14.5977 118.21 14.5977 118.438C14.5977 118.738 14.7298 118.966 14.9941 119.121C15.2585 119.276 15.582 119.431 15.9648 119.586L17.0859 120.051C17.724 120.324 18.1934 120.657 18.4941 121.049C18.7949 121.441 18.9453 121.887 18.9453 122.389C18.9453 122.936 18.7858 123.419 18.4668 123.838C18.1569 124.248 17.7376 124.572 17.209 124.809C16.6895 125.046 16.1107 125.164 15.4727 125.164C14.9349 125.164 14.4199 125.073 13.9277 124.891C13.4355 124.708 13.0072 124.485 12.6426 124.221V122.348C13.0436 122.639 13.4857 122.885 13.9688 123.086C14.4518 123.286 14.9668 123.387 15.5137 123.387C15.8965 123.387 16.2246 123.314 16.498 123.168C16.7715 123.013 16.9082 122.785 16.9082 122.484C16.9082 122.247 16.7943 122.056 16.5664 121.91C16.3477 121.755 16.1061 121.628 15.8418 121.527L14.4336 120.98C13.7227 120.707 13.2396 120.352 12.9844 119.914C12.7383 119.467 12.6152 118.975 12.6152 118.438C12.6152 117.882 12.7656 117.398 13.0664 116.988C13.3763 116.569 13.7773 116.245 14.2695 116.018C14.7617 115.781 15.2949 115.662 15.8691 115.662ZM22.7598 115.84V119.572H27.0117V115.84H28.8984V125H27.0117V121.281H22.7598V125H20.8594V115.84H22.7598ZM36.5547 123.291V125H31.5645V123.291H33.1094V117.549H31.5645V115.84H36.5547V117.549H35.0098V123.291H36.5547ZM42.9395 115.84C43.3678 115.84 43.7871 115.913 44.1973 116.059C44.6074 116.204 44.9766 116.419 45.3047 116.701C45.6419 116.984 45.9062 117.326 46.0977 117.727C46.2982 118.118 46.3984 118.57 46.3984 119.08C46.3984 119.7 46.2389 120.251 45.9199 120.734C45.61 121.208 45.1953 121.582 44.6758 121.855C44.1562 122.129 43.5911 122.266 42.9805 122.266C42.5703 122.266 42.2012 122.225 41.873 122.143C41.5449 122.061 41.2715 121.965 41.0527 121.855V125H39.1523V115.84H42.9395ZM41.0527 117.617V120.324C41.2533 120.406 41.4948 120.479 41.7773 120.543C42.069 120.598 42.3652 120.625 42.666 120.625C43.2129 120.625 43.6458 120.475 43.9648 120.174C44.293 119.864 44.457 119.499 44.457 119.08C44.457 118.597 44.2747 118.232 43.9102 117.986C43.5456 117.74 43.1172 117.617 42.625 117.617H41.0527Z" fill="#191919"/>
</svg>
