<svg width="110" height="147" viewBox="0 0 110 147" fill="none" xmlns="http://www.w3.org/2000/svg">
<rect width="110" height="147" fill="#F9F7F2"/>
<path d="M22.4453 97.7715V107H20.5449V101.422L18.1934 103.992H17.6465L15.2676 101.422V107H13.3672V97.7715H14.0098L17.9199 101.846L21.8027 97.7715H22.4453ZM29.1582 97.7715L33.4238 107H31.1953L30.498 105.291H26.875L26.1777 107H23.9492L28.2148 97.7715H29.1582ZM28.6934 100.875L27.5449 103.678H29.8418L28.6934 100.875ZM38.4824 97.6211C39.4486 97.6211 40.2962 97.8171 41.0254 98.209C41.7546 98.6009 42.3197 99.1478 42.7207 99.8496C43.1309 100.551 43.3359 101.376 43.3359 102.324C43.3359 103.227 43.1445 104.047 42.7617 104.785C42.3789 105.514 41.832 106.093 41.1211 106.521C40.4102 106.95 39.5625 107.164 38.5781 107.164C37.9492 107.164 37.3203 107.132 36.6914 107.068C36.0716 107.005 35.4837 106.918 34.9277 106.809V97.9766C35.4928 97.8854 36.0716 97.8034 36.6641 97.7305C37.2565 97.6576 37.8626 97.6211 38.4824 97.6211ZM38.5234 99.3984C38.25 99.3984 37.9629 99.4121 37.6621 99.4395C37.3613 99.4668 37.0833 99.5033 36.8281 99.5488V105.236C37.1016 105.291 37.3841 105.332 37.6758 105.359C37.9766 105.378 38.2591 105.387 38.5234 105.387C39.125 105.387 39.64 105.259 40.0684 105.004C40.4967 104.74 40.8249 104.38 41.0527 103.924C41.2806 103.468 41.3945 102.958 41.3945 102.393C41.3945 101.809 41.2806 101.294 41.0527 100.848C40.8249 100.401 40.4967 100.05 40.0684 99.7949C39.64 99.5306 39.125 99.3984 38.5234 99.3984ZM51.2656 101.559V103.104H47.2188V105.318H51.7988V107H45.3184V97.8398H51.7988V99.4805H47.2188V101.559H51.2656ZM65.1152 97.8398V99.5488H62.1895V106.959H60.3027V99.5488H57.377V97.8398H65.1152ZM70.7617 97.6348C71.418 97.6348 72.0332 97.7533 72.6074 97.9902C73.1816 98.2181 73.6875 98.5462 74.125 98.9746C74.5716 99.3939 74.918 99.8952 75.1641 100.479C75.4193 101.062 75.5469 101.709 75.5469 102.42C75.5469 103.131 75.4193 103.778 75.1641 104.361C74.918 104.945 74.5716 105.451 74.125 105.879C73.6875 106.298 73.1816 106.626 72.6074 106.863C72.0332 107.091 71.418 107.205 70.7617 107.205C70.1055 107.205 69.4857 107.091 68.9023 106.863C68.3281 106.626 67.8177 106.298 67.3711 105.879C66.9336 105.451 66.5872 104.945 66.332 104.361C66.0859 103.778 65.9629 103.131 65.9629 102.42C65.9629 101.709 66.0859 101.062 66.332 100.479C66.5872 99.8952 66.9336 99.3939 67.3711 98.9746C67.8177 98.5462 68.3281 98.2181 68.9023 97.9902C69.4857 97.7533 70.1055 97.6348 70.7617 97.6348ZM70.7617 99.4258C70.2148 99.4258 69.7227 99.5579 69.2852 99.8223C68.8568 100.087 68.5195 100.442 68.2734 100.889C68.0273 101.335 67.9043 101.846 67.9043 102.42C67.9043 102.985 68.0273 103.495 68.2734 103.951C68.5195 104.398 68.8568 104.753 69.2852 105.018C69.7227 105.273 70.2148 105.4 70.7617 105.4C71.3086 105.4 71.7962 105.273 72.2246 105.018C72.653 104.753 72.9902 104.398 73.2363 103.951C73.4824 103.495 73.6055 102.985 73.6055 102.42C73.6055 101.846 73.4824 101.335 73.2363 100.889C72.9902 100.442 72.653 100.087 72.2246 99.8223C71.7962 99.5579 71.3086 99.4258 70.7617 99.4258ZM17.4141 115.635C18.0703 115.635 18.6855 115.753 19.2598 115.99C19.834 116.218 20.3398 116.546 20.7773 116.975C21.224 117.394 21.5703 117.895 21.8164 118.479C22.0716 119.062 22.1992 119.709 22.1992 120.42C22.1992 121.131 22.0716 121.778 21.8164 122.361C21.5703 122.945 21.224 123.451 20.7773 123.879C20.3398 124.298 19.834 124.626 19.2598 124.863C18.6855 125.091 18.0703 125.205 17.4141 125.205C16.7578 125.205 16.138 125.091 15.5547 124.863C14.9805 124.626 14.4701 124.298 14.0234 123.879C13.5859 123.451 13.2396 122.945 12.9844 122.361C12.7383 121.778 12.6152 121.131 12.6152 120.42C12.6152 119.709 12.7383 119.062 12.9844 118.479C13.2396 117.895 13.5859 117.394 14.0234 116.975C14.4701 116.546 14.9805 116.218 15.5547 115.99C16.138 115.753 16.7578 115.635 17.4141 115.635ZM17.4141 117.426C16.8672 117.426 16.375 117.558 15.9375 117.822C15.5091 118.087 15.1719 118.442 14.9258 118.889C14.6797 119.335 14.5566 119.846 14.5566 120.42C14.5566 120.985 14.6797 121.495 14.9258 121.951C15.1719 122.398 15.5091 122.753 15.9375 123.018C16.375 123.273 16.8672 123.4 17.4141 123.4C17.9609 123.4 18.4486 123.273 18.877 123.018C19.3053 122.753 19.6426 122.398 19.8887 121.951C20.1348 121.495 20.2578 120.985 20.2578 120.42C20.2578 119.846 20.1348 119.335 19.8887 118.889C19.6426 118.442 19.3053 118.087 18.877 117.822C18.4486 117.558 17.9609 117.426 17.4141 117.426ZM27.9004 115.84C28.3288 115.84 28.748 115.899 29.1582 116.018C29.5684 116.136 29.9375 116.318 30.2656 116.564C30.6029 116.811 30.8672 117.12 31.0586 117.494C31.2591 117.859 31.3594 118.296 31.3594 118.807C31.3594 119.344 31.2227 119.809 30.9492 120.201C30.6849 120.584 30.334 120.885 29.8965 121.104C29.459 121.313 28.985 121.436 28.4746 121.473L31.7695 125H29.2676L26.082 121.254V125H24.1816V115.84H27.9004ZM26.082 117.617V119.928C26.3008 120.001 26.5423 120.06 26.8066 120.105C27.0801 120.142 27.3535 120.16 27.627 120.16C28.1738 120.16 28.6068 120.051 28.9258 119.832C29.2539 119.604 29.418 119.285 29.418 118.875C29.418 118.428 29.2448 118.109 28.8984 117.918C28.5612 117.717 28.1465 117.617 27.6543 117.617H26.082ZM36.8691 115.621C37.8353 115.621 38.6829 115.817 39.4121 116.209C40.1413 116.601 40.7064 117.148 41.1074 117.85C41.5176 118.551 41.7227 119.376 41.7227 120.324C41.7227 121.227 41.5312 122.047 41.1484 122.785C40.7656 123.514 40.2188 124.093 39.5078 124.521C38.7969 124.95 37.9492 125.164 36.9648 125.164C36.3359 125.164 35.707 125.132 35.0781 125.068C34.4583 125.005 33.8704 124.918 33.3145 124.809V115.977C33.8796 115.885 34.4583 115.803 35.0508 115.73C35.6432 115.658 36.2493 115.621 36.8691 115.621ZM36.9102 117.398C36.6367 117.398 36.3496 117.412 36.0488 117.439C35.748 117.467 35.4701 117.503 35.2148 117.549V123.236C35.4883 123.291 35.7708 123.332 36.0625 123.359C36.3633 123.378 36.6458 123.387 36.9102 123.387C37.5117 123.387 38.0267 123.259 38.4551 123.004C38.8835 122.74 39.2116 122.38 39.4395 121.924C39.6673 121.468 39.7812 120.958 39.7812 120.393C39.7812 119.809 39.6673 119.294 39.4395 118.848C39.2116 118.401 38.8835 118.05 38.4551 117.795C38.0267 117.531 37.5117 117.398 36.9102 117.398ZM49.6523 119.559V121.104H45.6055V123.318H50.1855V125H43.7051V115.84H50.1855V117.48H45.6055V119.559H49.6523ZM56.3652 115.84C56.7936 115.84 57.2129 115.899 57.623 116.018C58.0332 116.136 58.4023 116.318 58.7305 116.564C59.0677 116.811 59.332 117.12 59.5234 117.494C59.724 117.859 59.8242 118.296 59.8242 118.807C59.8242 119.344 59.6875 119.809 59.4141 120.201C59.1497 120.584 58.7988 120.885 58.3613 121.104C57.9238 121.313 57.4499 121.436 56.9395 121.473L60.2344 125H57.7324L54.5469 121.254V125H52.6465V115.84H56.3652ZM54.5469 117.617V119.928C54.7656 120.001 55.0072 120.06 55.2715 120.105C55.5449 120.142 55.8184 120.16 56.0918 120.16C56.6387 120.16 57.0716 120.051 57.3906 119.832C57.7188 119.604 57.8828 119.285 57.8828 118.875C57.8828 118.428 57.7096 118.109 57.3633 117.918C57.026 117.717 56.6113 117.617 56.1191 117.617H54.5469Z" fill="#191919"/>
<path d="M37 70C50.2548 70 61 59.2548 61 46C61 32.7452 50.2548 22 37 22C23.7452 22 13 32.7452 13 46C13 59.2548 23.7452 70 37 70Z" stroke="#191919" stroke-width="2" stroke-linecap="round" stroke-linejoin="round"/>
<path d="M43 37L56 60" stroke="#191919" stroke-width="2" stroke-linecap="round" stroke-linejoin="round"/>
<path d="M31 37H59" stroke="#191919" stroke-width="2" stroke-linecap="round" stroke-linejoin="round"/>
<path d="M26 46L40 22" stroke="#191919" stroke-width="2" stroke-linecap="round" stroke-linejoin="round"/>
<path d="M31 55L18 32" stroke="#191919" stroke-width="2" stroke-linecap="round" stroke-linejoin="round"/>
<path d="M43 55H15" stroke="#191919" stroke-width="2" stroke-linecap="round" stroke-linejoin="round"/>
<path d="M48 46L34 70" stroke="#191919" stroke-width="2" stroke-linecap="round" stroke-linejoin="round"/>
</svg>
