<svg width="951" height="559" viewBox="0 0 951 559" fill="none" xmlns="http://www.w3.org/2000/svg">
  <path d="M636.535 442.956L636.524 442.968L636.514 442.979C600.711 480.321 556.581 510.613 507.447 530.118C463.744 547.541 416.287 557.5 366.741 557.5C215.529 557.5 88.6654 457.047 4.76779 336.175L3.23227 333.963L5.92148 333.822C37.2208 332.18 70.2195 323.556 103.271 309.556L103.273 309.556C162.753 284.443 221.055 238.303 277.48 192.818L277.491 192.809C283.755 187.852 289.956 182.879 296.116 177.939C303.778 171.794 311.376 165.7 318.952 159.751C439.114 62.5383 538.505 17.6956 620.057 5.2449C701.654 -7.21258 765.287 12.775 813.832 44.9958C862.342 77.1933 895.733 121.566 916.986 157.842C927.617 175.986 935.222 192.123 940.17 203.729C942.645 209.532 944.456 214.204 945.65 217.429C946.247 219.042 946.69 220.293 946.984 221.143C947.131 221.568 947.241 221.893 947.315 222.112C947.352 222.222 947.379 222.306 947.398 222.363L947.419 222.427L947.425 222.444C947.426 222.449 947.427 222.451 946 222.914L947.427 222.451L948.063 224.414L946 224.414C839.984 224.414 748.727 276.126 689.787 372.88C671.328 403.18 654.825 423.07 636.535 442.956Z" stroke="#D9BB7F" stroke-opacity="0.2" stroke-width="3"/>
  </svg>
