<?xml version="1.0" standalone="no"?>
<!DOCTYPE svg PUBLIC "-//W3C//DTD SVG 1.1//EN" "http://www.w3.org/Graphics/SVG/1.1/DTD/svg11.dtd" >
<svg xmlns="http://www.w3.org/2000/svg" xmlns:xlink="http://www.w3.org/1999/xlink" version="1.1">
<metadata></metadata>
<defs>
<font id="senregular" horiz-adv-x="1244" >
<font-face units-per-em="2048" ascent="1638" descent="-410" />
<missing-glyph horiz-adv-x="600" />
<glyph unicode="tt" horiz-adv-x="1572" d="M1282 126q90 0 170 48v-134q-46 -36 -91 -53t-115 -17q-125 0 -191.5 76t-66.5 206v594h-542v-586q0 -64 32.5 -99t97.5 -35q90 0 170 48v-134q-46 -36 -91 -53t-115 -17q-125 0 -191.5 76t-66.5 206v594h-192v48q94 42 161 140t119 254h76v-288h394q95 0 160 65.5 t116 202.5h36v-268h292v-154h-292v-586q0 -64 32.5 -99t97.5 -35z" />
<glyph unicode=" "  horiz-adv-x="600" />
<glyph unicode="&#x09;" horiz-adv-x="600" />
<glyph unicode="&#xa0;" horiz-adv-x="600" />
<glyph unicode="!" horiz-adv-x="600" d="M382 440h-164v900h164v-900zM300 244q57 0 98.5 -41t41.5 -99q0 -57 -41.5 -98.5t-98.5 -41.5q-58 0 -99 41.5t-41 98.5q0 58 41 99t99 41z" />
<glyph unicode="&#x22;" horiz-adv-x="884" d="M324 882h-164v508h164v-508zM724 882h-164v508h164v-508z" />
<glyph unicode="#" horiz-adv-x="1540" d="M1130 816l-102 -336h212v-140h-256l-104 -340h-136l104 340h-328l-104 -340h-136l104 340h-224v140h266l102 336h-228v160h276l110 364h142l-112 -364h324l110 364h142l-112 -364h200v-160h-250zM992 816h-324l-104 -336h326z" />
<glyph unicode="$" horiz-adv-x="1100" d="M944 380q0 -126 -95.5 -217.5t-238.5 -114.5v-168h-144v166q-146 15 -290 114v170q182 -128 372 -128q95 0 161.5 47t66.5 125q0 103 -174 174l-222 92q-125 53 -175.5 130t-50.5 186q0 121 89.5 213.5t222.5 118.5v132h144v-124q137 -12 268 -96v-168 q-58 43 -140.5 74.5t-161.5 31.5q-59 0 -114.5 -19t-96.5 -63.5t-41 -105.5q0 -67 45 -107t135 -77l186 -76q132 -54 193 -126t61 -184z" />
<glyph unicode="%" horiz-adv-x="1648" d="M1288 1326l-822 -1366l-106 54l816 1366zM384 1370q133 0 218.5 -89t85.5 -217q0 -129 -85.5 -217.5t-218.5 -88.5q-134 0 -219 88t-85 218q0 129 85 217.5t219 88.5zM386 1234q-70 0 -118 -50t-48 -120q0 -71 48 -121.5t118 -50.5q69 0 116.5 50.5t47.5 121.5 q0 70 -48 120t-116 50zM1264 582q133 0 218.5 -89t85.5 -217q0 -129 -85.5 -217.5t-218.5 -88.5q-134 0 -219 88t-85 218q0 129 85 217.5t219 88.5zM1266 446q-70 0 -118 -50t-48 -120q0 -71 48 -121.5t118 -50.5q69 0 116.5 50.5t47.5 121.5q0 70 -48 120t-116 50z" />
<glyph unicode="&#x26;" horiz-adv-x="1418" d="M1318 0h-222q-54 54 -158 162q-169 -192 -398 -192q-197 0 -318.5 103.5t-121.5 266.5q0 57 19 107.5t47.5 86.5t75.5 71.5t88 58.5t100 52q-81 85 -122.5 155t-41.5 161q0 109 53.5 187.5t134.5 114.5t178 36q68 0 133 -22t118.5 -62t86 -103t32.5 -139 q0 -58 -18.5 -107.5t-56.5 -90.5t-76 -70.5t-97 -67.5q-30 -20 -58 -34q99 -115 228 -254q35 54 168 280h196q-138 -245 -248 -404zM464 1024q0 -56 31.5 -109t92.5 -121q104 54 160 111.5t56 138.5q0 72 -53.5 111t-118.5 39q-69 0 -118.5 -41.5t-49.5 -128.5zM546 146 q97 0 159 35.5t117 102.5q-188 209 -278 312q-57 -29 -95.5 -52t-76 -54.5t-56 -69t-18.5 -80.5q0 -91 68.5 -142.5t179.5 -51.5z" />
<glyph unicode="'" horiz-adv-x="484" d="M324 832h-164v508h164v-508z" />
<glyph unicode="(" horiz-adv-x="726" d="M464 1380h182q-122 -135 -212 -400t-90 -490q0 -236 89 -494.5t213 -395.5h-182q-132 137 -228 384t-96 506q0 247 97 501.5t227 388.5z" />
<glyph unicode=")" horiz-adv-x="786" d="M140 1380h182q130 -134 227 -388.5t97 -501.5q0 -259 -96 -506t-228 -384h-182q124 137 213 395.5t89 494.5q0 225 -90 490t-212 400z" />
<glyph unicode="*" horiz-adv-x="988" d="M554 1166l208 88l46 -136l-216 -62l152 -190l-116 -84l-134 206l-134 -206l-116 84l152 190l-216 62l46 136l208 -88l-12 244h144z" />
<glyph unicode="+" horiz-adv-x="1100" d="M940 536h-300v-302h-180v302h-300v180h300v300h180v-300h300v-180z" />
<glyph unicode="," horiz-adv-x="564" d="M404 180l-180 -534l-124 32l140 558z" />
<glyph unicode="-" horiz-adv-x="842" d="M722 416h-602v180h602v-180z" />
<glyph unicode="." horiz-adv-x="600" d="M300 244q57 0 98.5 -41t41.5 -99q0 -57 -41.5 -98.5t-98.5 -41.5q-58 0 -99 41.5t-41 98.5q0 58 41 99t99 41z" />
<glyph unicode="/" horiz-adv-x="828" d="M216 -400h-136l526 1810h142z" />
<glyph unicode="0" horiz-adv-x="1100" d="M556 1370q100 0 184.5 -40t143 -107.5t99.5 -157.5t60 -190t19 -205t-19 -205t-60 -190t-99.5 -157.5t-143 -107.5t-184.5 -40t-184.5 40t-143 107.5t-99.5 157.5t-60 190t-19 205t19 205t60 190t99.5 157.5t143 107.5t184.5 40zM556 1194q-105 0 -183.5 -78t-115.5 -195 t-37 -251t37 -251t115.5 -195t183.5 -78t183.5 78t115.5 195t37 251t-37 251t-115.5 195t-183.5 78z" />
<glyph unicode="1" horiz-adv-x="1100" d="M942 160v-160h-726v160h266v872q-37 -33 -84.5 -55t-80 -30.5t-87.5 -18.5v172q206 54 344 240h88v-1180h280z" />
<glyph unicode="2" horiz-adv-x="1100" d="M512 1370q200 0 322 -107.5t122 -288.5q0 -43 -6.5 -84t-24.5 -83.5t-35 -77.5t-51.5 -83t-60.5 -81t-76.5 -89.5t-83.5 -92.5t-97.5 -105t-104.5 -112h550v-166h-840v72q71 79 164 180t147 160t118.5 132.5t100.5 120t69.5 98.5t47 93t13.5 78q0 125 -82 192.5 t-208 67.5q-90 0 -176 -43.5t-154 -106.5v188q62 57 152 97.5t194 40.5z" />
<glyph unicode="3" horiz-adv-x="1100" d="M492 1370q198 0 327 -109.5t129 -276.5q0 -64 -26 -118t-68.5 -89.5t-85.5 -58t-86 -34.5q42 -11 86 -37t85.5 -64.5t68 -95.5t26.5 -121q0 -169 -127 -282.5t-323 -113.5q-110 0 -203.5 37t-152.5 91v198q13 -9 53.5 -40t64.5 -46.5t64 -37t84 -31t94 -9.5 q123 0 199.5 65.5t76.5 178.5q0 97 -86 163.5t-200 66.5h-120v160h120q128 0 207 56t79 152q0 102 -85 168t-207 66q-94 0 -165 -39.5t-139 -108.5v198q54 50 137.5 81t172.5 31z" />
<glyph unicode="4" horiz-adv-x="1100" d="M846 448h210v-152h-210v-296h-180v296h-612v66q101 109 183.5 203.5t183.5 221.5t193 268t166 285h66v-892zM666 448v452q-179 -281 -332 -452h332z" />
<glyph unicode="5" horiz-adv-x="1100" d="M926 1174h-528v-358q70 28 170 28q169 0 290.5 -118.5t121.5 -291.5q0 -203 -140 -333.5t-354 -130.5q-102 0 -201.5 42t-158.5 96v198q98 -80 147 -109q110 -65 213 -65q138 0 231 79.5t93 206.5q0 118 -98 192t-236 74q-47 0 -98.5 -10.5t-79.5 -20t-80 -29.5v716h708 v-166z" />
<glyph unicode="6" horiz-adv-x="1100" d="M616 1340h266q-22 -21 -110.5 -101t-141.5 -131.5t-126 -128t-120.5 -144.5t-69.5 -127q56 70 132.5 116t163.5 46q95 0 176 -35t134 -93t82.5 -132.5t29.5 -155.5q0 -88 -31.5 -173.5t-88 -155t-144 -112.5t-190.5 -43q-207 0 -344.5 141t-137.5 375q0 72 17.5 145.5 t43.5 135.5t67.5 128t79 114.5t88 104.5t84 89t79 77t61.5 60zM568 708q-118 0 -210 -78.5t-92 -195.5q0 -131 92 -216.5t210 -85.5q117 0 205.5 85t88.5 217q0 118 -88.5 196t-205.5 78z" />
<glyph unicode="7" horiz-adv-x="1100" d="M1028 1340v-84q-110 -157 -184 -273t-143.5 -246t-109.5 -241.5t-63.5 -237.5t-23.5 -258h-206q0 68 8.5 136.5t20 127t36 126t43.5 116t56 117t60.5 110t69.5 113t70.5 107t76.5 112t75 109.5h-712v166h926z" />
<glyph unicode="8" horiz-adv-x="1100" d="M550 1370q170 0 286 -100.5t116 -255.5q0 -197 -194 -308q101 -46 167.5 -134.5t66.5 -197.5q0 -171 -123.5 -287.5t-318.5 -116.5t-318.5 116.5t-123.5 287.5q0 109 66.5 197.5t167.5 134.5q-194 111 -194 308q0 155 116 255.5t286 100.5zM550 1208q-89 0 -160.5 -62 t-71.5 -152q0 -89 70.5 -145.5t161.5 -56.5t161.5 56.5t70.5 145.5q0 90 -71.5 152t-160.5 62zM550 624q-104 0 -188 -71t-84 -169q0 -102 79 -177t193 -75t193 75t79 177q0 98 -84 169t-188 71z" />
<glyph unicode="9" horiz-adv-x="1100" d="M508 0h-266q22 21 110.5 101t141.5 131.5t126 128t120.5 144.5t69.5 127q-56 -70 -132.5 -116t-163.5 -46q-95 0 -176 35t-134 93t-82.5 132.5t-29.5 155.5q0 88 31.5 173.5t88 155t144 112.5t190.5 43q207 0 344.5 -141t137.5 -375q0 -72 -17.5 -145.5t-43.5 -135.5 t-67.5 -128t-79 -114.5t-88 -104.5t-84 -89t-79 -77t-61.5 -60zM556 632q118 0 210 78.5t92 195.5q0 131 -92 216.5t-210 85.5q-117 0 -205.5 -85t-88.5 -217q0 -118 88.5 -196t205.5 -78z" />
<glyph unicode=":" horiz-adv-x="600" d="M300 1044q57 0 98.5 -41t41.5 -99q0 -57 -41.5 -98.5t-98.5 -41.5q-58 0 -99 41.5t-41 98.5q0 58 41 99t99 41zM300 244q57 0 98.5 -41t41.5 -99q0 -57 -41.5 -98.5t-98.5 -41.5q-58 0 -99 41.5t-41 98.5q0 58 41 99t99 41z" />
<glyph unicode=";" horiz-adv-x="704" d="M382 1044q57 0 98.5 -41t41.5 -99q0 -57 -41.5 -98.5t-98.5 -41.5q-58 0 -99 41.5t-41 98.5q0 58 41 99t99 41zM464 180l-180 -534l-124 32l140 558z" />
<glyph unicode="&#x3c;" horiz-adv-x="1000" d="M920 988l-612 -382l612 -410v-196l-800 552v102l800 530v-196z" />
<glyph unicode="=" horiz-adv-x="1102" d="M942 716h-782v180h782v-180zM942 346h-782v180h782v-180z" />
<glyph unicode="&#x3e;" horiz-adv-x="1000" d="M880 654v-102l-800 -552v196l612 410l-612 382v196z" />
<glyph unicode="?" horiz-adv-x="1120" d="M530 1370q182 0 306 -111t124 -279q0 -69 -38 -131.5t-92 -109t-107.5 -88.5t-90 -86.5t-34.5 -86.5l2 -42h-194v80q0 40 36 84t87.5 84.5t103 82t87.5 91t36 96.5q0 101 -64.5 163.5t-181.5 62.5q-115 0 -194.5 -45t-155.5 -141v218q56 68 157 113t213 45zM512 244 q57 0 98.5 -41t41.5 -99q0 -57 -41.5 -98.5t-98.5 -41.5q-58 0 -99 41.5t-41 98.5q0 58 41 99t99 41z" />
<glyph unicode="@" horiz-adv-x="1648" d="M824 1224q146 0 277 -47t230.5 -132t158 -214.5t58.5 -284.5q0 -178 -115.5 -306t-276.5 -128q-85 0 -142 39.5t-72 106.5q-107 -146 -272 -146q-141 0 -218 110.5t-50 263.5q31 179 148 285.5t280 106.5q64 0 120.5 -29.5t93.5 -82.5l18 98h144l-96 -416 q-10 -43 -14.5 -71t-4.5 -56.5t9.5 -44.5t30 -26t53.5 -10q77 0 137.5 82t60.5 224q0 163 -74.5 283.5t-200 181.5t-283.5 61q-115 0 -218.5 -45t-178 -122.5t-118 -186.5t-43.5 -232q0 -248 154 -399t404 -151q140 0 241.5 31t230.5 103l72 -122q-150 -81 -277.5 -121.5 t-266.5 -40.5q-152 0 -285 50t-230 139.5t-153 221.5t-56 289q0 156 59 294.5t157.5 235t231 152.5t276.5 56zM828 730q-112 0 -181 -66t-91 -178q-21 -107 20 -171.5t136 -64.5q102 0 173 56t97 168l38 164q-80 92 -192 92z" />
<glyph unicode="A" horiz-adv-x="1382" d="M1006 320h-628l-142 -320h-216l626 1340h90l626 -1340h-216zM932 490l-238 546l-242 -546h480z" />
<glyph unicode="B" horiz-adv-x="1376" d="M982 688q47 -10 91 -32t83 -58.5t62.5 -93.5t23.5 -126q0 -171 -147.5 -284.5t-386.5 -113.5q-263 0 -488 50v1310h536q181 0 301.5 -100.5t120.5 -261.5q0 -91 -49.5 -172t-146.5 -118zM400 1170v-420h314q125 0 202.5 58t77.5 150q0 104 -75 158t-205 54h-314zM704 150 q153 0 253.5 62.5t100.5 165.5q0 104 -95.5 158t-244.5 54h-318v-416q128 -24 304 -24z" />
<glyph unicode="C" horiz-adv-x="1348" d="M806 1370q136 0 230 -37t172 -107v-198q-12 8 -46 33t-53.5 38.5t-57.5 34t-70.5 32t-79 20t-95.5 8.5q-225 0 -373.5 -149.5t-148.5 -374.5t148.5 -374.5t373.5 -149.5q238 0 442 156v-180q-76 -68 -190 -110t-252 -42q-198 0 -360.5 94.5t-254 255t-91.5 350.5 t91.5 350.5t254 255t360.5 94.5z" />
<glyph unicode="D" horiz-adv-x="1518" d="M220 1340h426q125 0 239 -26.5t211.5 -80.5t169 -131t112 -184.5t40.5 -233.5q0 -200 -81.5 -358t-243.5 -252t-381 -94q-222 0 -492 50v1310zM400 1170v-1000q167 -20 312 -20q158 0 278 71t182 191.5t62 271.5q0 119 -49.5 213.5t-132.5 153t-187 89t-219 30.5h-246z " />
<glyph unicode="E" horiz-adv-x="1298" d="M400 1170v-398h652v-170h-652v-432h738v-170h-918v1340h918v-170h-738z" />
<glyph unicode="F" horiz-adv-x="1270" d="M400 1170v-448h576v-170h-576v-552h-180v1340h876v-170h-696z" />
<glyph unicode="G" horiz-adv-x="1402" d="M1322 732v-550q-81 -88 -217 -150t-299 -62q-198 0 -360.5 94.5t-254 255t-91.5 350.5t91.5 350.5t254 255t360.5 94.5q136 0 230 -37t172 -107v-198q-12 8 -46 33t-53.5 38.5t-57.5 34t-70.5 32t-79 20t-95.5 8.5q-225 0 -373.5 -149.5t-148.5 -374.5t148.5 -374.5 t373.5 -149.5q33 0 62.5 2.5t54.5 8t45 10.5t40 14.5t32 15t28 17.5t22 16t20 16.5t16 13.5l2 312h-336v160h530z" />
<glyph unicode="H" horiz-adv-x="1564" d="M1344 1340v-1340h-180v606h-764v-606h-180v1340h180v-564h764v564h180z" />
<glyph unicode="I" horiz-adv-x="1072" d="M626 1170v-1000h226v-170h-632v170h226v1000h-226v170h632v-170h-226z" />
<glyph unicode="J" horiz-adv-x="630" d="M410 1344v-1276q0 -100 -21.5 -182t-58 -142.5t-92.5 -109.5t-118.5 -82t-141.5 -62l-88 174q340 122 340 368v1312h180z" />
<glyph unicode="K" horiz-adv-x="1344" d="M572 578l-172 -188v-390h-180v1340h180v-704l612 704h252l-562 -618l622 -722h-250z" />
<glyph unicode="L" horiz-adv-x="1272" d="M400 170h738v-170h-918v1340h180v-1170z" />
<glyph unicode="M" horiz-adv-x="1686" d="M1466 0h-180v980l-412 -460h-52l-422 460v-980h-180v1340h72l556 -596l546 596h72v-1340z" />
<glyph unicode="N" horiz-adv-x="1558" d="M1338 0h-72l-866 958v-958h-180v1340h72l866 -970v970h180v-1340z" />
<glyph unicode="O" horiz-adv-x="1612" d="M806 1370q198 0 360.5 -94.5t254 -255t91.5 -350.5t-91.5 -350.5t-254 -255t-360.5 -94.5t-360.5 94.5t-254 255t-91.5 350.5t91.5 350.5t254 255t360.5 94.5zM806 1194q-225 0 -373.5 -149.5t-148.5 -374.5t148.5 -374.5t373.5 -149.5t373.5 149.5t148.5 374.5 t-148.5 374.5t-373.5 149.5z" />
<glyph unicode="P" horiz-adv-x="1320" d="M220 1340h534q87 0 170 -32.5t149 -89.5t106.5 -143.5t40.5 -186.5q0 -116 -66 -215t-180 -157t-250 -58q-180 0 -324 66v-524h-180v1340zM718 628q148 0 233 72.5t85 187.5q0 123 -99 202.5t-233 79.5h-304v-482q59 -25 146.5 -42.5t171.5 -17.5z" />
<glyph unicode="Q" horiz-adv-x="1662" d="M1012 -2q331 -126 516 -126v-180q-162 0 -362 79t-360 199q-198 0 -360.5 94.5t-254 255t-91.5 350.5t91.5 350.5t254 255t360.5 94.5t360.5 -94.5t254 -255t91.5 -350.5q0 -236 -138.5 -421.5t-361.5 -250.5zM284 670q0 -225 148.5 -374.5t373.5 -149.5t373.5 149.5 t148.5 374.5t-148.5 374.5t-373.5 149.5t-373.5 -149.5t-148.5 -374.5z" />
<glyph unicode="R" horiz-adv-x="1332" d="M1036 0l-636 564v-564h-180v1340h514q70 0 136.5 -15t126.5 -47.5t105 -78.5t71.5 -113.5t26.5 -147.5q0 -90 -41.5 -164.5t-110 -121t-152 -71.5t-172.5 -25q-40 0 -66 2l654 -558h-276zM400 1170v-430q139 -38 298 -38q150 0 234 63.5t84 172.5t-89 170.5t-223 61.5 h-304z" />
<glyph unicode="S" horiz-adv-x="1046" d="M544 1360q74 0 140.5 -18t103 -37t86.5 -51v-186q-157 116 -310 116q-66 0 -127 -20.5t-106 -69t-45 -116.5q0 -39 14 -69t45.5 -54.5t59.5 -40t79 -38.5l184 -84q145 -66 211.5 -142.5t66.5 -197.5q0 -106 -63.5 -192t-168.5 -133t-228 -47q-200 0 -384 130v186 q202 -140 408 -140q105 0 178.5 51.5t73.5 136.5q0 35 -17 66t-49 55t-60 39t-66 32l-222 100q-138 62 -193 145.5t-55 202.5q0 104 61 191t163 136t220 49z" />
<glyph unicode="T" horiz-adv-x="1222" d="M1164 1170h-462v-1164h-180v1164h-462v170h1104v-170z" />
<glyph unicode="U" horiz-adv-x="1504" d="M1304 1344v-814q0 -171 -73 -298.5t-197 -192.5t-282 -65t-282 65t-197 192.5t-73 298.5v814h180v-808q0 -99 29.5 -173.5t82 -118.5t118 -65.5t142.5 -20.5q78 1 143 22.5t117.5 65t82 117.5t29.5 173v808h180z" />
<glyph unicode="V" horiz-adv-x="1382" d="M736 0h-90l-626 1340h216l452 -1036l458 1036h216z" />
<glyph unicode="W" horiz-adv-x="1888" d="M1398 0h-102l-360 1014l-364 -1014h-102l-450 1340h196l314 -996l354 996l116 -2l344 -994l328 996h196z" />
<glyph unicode="X" horiz-adv-x="1288" d="M742 650l526 -650h-240l-404 524l-384 -524h-220l502 670l-502 670h240l380 -546l388 546h240z" />
<glyph unicode="Y" horiz-adv-x="1262" d="M728 550v-550h-194v524l-514 816h216l392 -632l398 632h216z" />
<glyph unicode="Z" horiz-adv-x="1302" d="M1168 1268l-766 -1098h766v-170h-1034v72l744 1098h-744v170h1034v-72z" />
<glyph unicode="[" horiz-adv-x="758" d="M678 1200h-324v-1420h324v-180h-518v1780h518v-180z" />
<glyph unicode="\" horiz-adv-x="728" d="M748 -400h-136l-632 1740h142z" />
<glyph unicode="]" horiz-adv-x="758" d="M598 1380v-1780h-518v180h324v1420h-324v180h518z" />
<glyph unicode="^" horiz-adv-x="1206" d="M1086 620h-176l-320 536l-294 -536h-176l422 720h102z" />
<glyph unicode="_" horiz-adv-x="980" d="M980 -222h-980v180h980v-180z" />
<glyph unicode="`" horiz-adv-x="628" d="M266 1440l220 -270h-164l-284 270h228z" />
<glyph unicode="a" d="M582 1020q86 0 175 -41.5t153 -112.5v134h164v-1000h-164v170q-57 -87 -147 -143.5t-197 -56.5q-128 0 -234.5 64.5t-169 182.5t-62.5 267q0 243 136 389.5t346 146.5zM612 860q-154 0 -248 -111.5t-94 -264.5q0 -149 90 -251.5t232 -102.5q137 0 228 106t90 266l-2 192 q-66 82 -137 124t-159 42z" />
<glyph unicode="b" d="M334 1440v-610q56 85 145.5 137.5t198.5 52.5q129 0 235 -62t168.5 -178t62.5 -264q0 -244 -136.5 -395t-345.5 -151q-84 0 -173 45.5t-155 118.5v-134h-164v1440h164zM652 860q-138 0 -228.5 -101.5t-89.5 -260.5l2 -192q69 -85 139.5 -130.5t156.5 -45.5 q103 0 182.5 56.5t119.5 143.5t40 186q0 148 -89.5 246t-232.5 98z" />
<glyph unicode="c" horiz-adv-x="1022" d="M622 1020q99 0 181 -31.5t119 -66.5v-166q-141 104 -300 104q-156 0 -254 -107.5t-98 -258.5q0 -150 98 -257t254 -107q159 0 300 104v-166q-36 -36 -118 -67t-182 -31q-148 0 -268.5 71.5t-187 191.5t-66.5 261q0 105 39 201.5t107.5 168t166.5 114t209 42.5z" />
<glyph unicode="d" d="M1074 0h-164v170q-57 -87 -147 -143.5t-197 -56.5q-128 0 -234.5 64.5t-169 182.5t-62.5 267q0 243 136 389.5t346 146.5q86 0 175 -41.5t153 -112.5v574h164v-1440zM612 856q-154 0 -248 -109.5t-94 -262.5q0 -149 90 -251.5t232 -102.5q137 0 228 106t90 266l-2 192 q-66 81 -136.5 121.5t-159.5 40.5z" />
<glyph unicode="e" horiz-adv-x="1142" d="M1042 534v-98h-768q19 -131 113.5 -218.5t234.5 -87.5q51 0 96 10t85.5 30.5t62 34.5t56.5 39v-166q-40 -40 -118 -74t-182 -34q-148 0 -268.5 71.5t-187 191.5t-66.5 261t61 261.5t172.5 192.5t248.5 72q113 0 201.5 -37t144.5 -103.5t85 -154t29 -191.5zM278 576h602 q-14 138 -99.5 211t-198.5 73q-119 0 -200.5 -80.5t-103.5 -203.5z" />
<glyph unicode="f" horiz-adv-x="736" d="M552 1314q-77 -3 -116.5 -50t-39.5 -154v-110h292v-154h-292v-846h-164v846h-158v154h158v128q0 84 27 151.5t72 108t99 61.5t112 21q102 0 166 -54v-144q-69 45 -156 42z" />
<glyph unicode="g" d="M582 1020q86 0 175 -41.5t153 -112.5v134h164v-980q0 -130 -42 -233t-115 -167t-167 -97t-202 -33q-66 0 -124 10t-104.5 28.5t-75 33t-62.5 36.5v176q2 -1 27.5 -16.5t40 -22.5t44.5 -22.5t55.5 -24t58.5 -19t68.5 -15t71.5 -4.5q152 0 257 83.5t105 226.5v210 q-57 -87 -147 -143.5t-197 -56.5q-128 0 -234.5 64.5t-169 182.5t-62.5 267q0 243 136 389.5t346 146.5zM612 858q-154 0 -248 -110.5t-94 -263.5q0 -149 89.5 -250.5t232.5 -101.5q137 0 228 105t90 265l-2 192q-66 82 -137 123t-159 41z" />
<glyph unicode="h" horiz-adv-x="1170" d="M660 1020q161 0 265.5 -106t104.5 -304v-610h-164l-2 594q0 266 -232 266q-75 0 -153.5 -55.5t-144.5 -140.5v-664h-164v1440h164v-598q55 69 144 123.5t182 54.5z" />
<glyph unicode="i" horiz-adv-x="616" d="M330 1208q-57 0 -96.5 41t-39.5 95q0 55 39.5 95.5t96.5 40.5q56 0 96 -40.5t40 -95.5q0 -54 -40 -95t-96 -41zM432 1000v-1000h-164v846h-158v154h322z" />
<glyph unicode="j" horiz-adv-x="578" d="M302 1208q-57 0 -96.5 41t-39.5 95q0 55 39.5 95.5t96.5 40.5q56 0 96 -40.5t40 -95.5q0 -54 -40 -95t-96 -41zM408 1000v-996q0 -373 -344 -514l-74 148q135 64 194.5 142.5t59.5 199.5v866h-158v154h322z" />
<glyph unicode="k" horiz-adv-x="1110" d="M478 458l-144 -134v-324h-164v1440h164v-928l498 488h222l-462 -434l508 -566h-208z" />
<glyph unicode="l" horiz-adv-x="504" d="M334 0h-164v1440h164v-1440z" />
<glyph unicode="m" horiz-adv-x="1854" d="M1324 1020q78 0 147.5 -26t124 -75t86.5 -129t32 -180v-610h-164l-2 594q0 128 -66.5 197t-185.5 69q-79 0 -141 -46.5t-131 -133.5v-680h-164l-2 594q0 128 -66.5 197t-185.5 69q-137 0 -272 -164v-696h-164v1000h164v-128q132 148 300 148q112 0 204 -52.5t142 -151.5 q83 98 163 151t181 53z" />
<glyph unicode="n" horiz-adv-x="1170" d="M660 1020q161 0 265.5 -106t104.5 -304v-610h-164l-2 594q0 266 -232 266q-75 0 -153.5 -55.5t-144.5 -140.5v-664h-164v1000h164v-158q55 69 144 123.5t182 54.5z" />
<glyph unicode="o" d="M622 1020q111 0 209 -42.5t166.5 -114t107.5 -168t39 -201.5q0 -141 -66.5 -261t-187 -191.5t-268.5 -71.5t-268.5 71.5t-187 191.5t-66.5 261q0 105 39 201.5t107.5 168t166.5 114t209 42.5zM622 860q-156 0 -254 -107.5t-98 -258.5q0 -150 98 -257t254 -107t254 107 t98 257q0 151 -98 258.5t-254 107.5z" />
<glyph unicode="p" d="M678 1020q129 0 235 -62t168.5 -178t62.5 -264q0 -244 -136.5 -395t-345.5 -151q-84 0 -173 45.5t-155 118.5v-614h-164v1480h164v-170q56 85 145.5 137.5t198.5 52.5zM652 860q-138 0 -228.5 -101.5t-89.5 -260.5l2 -192q69 -85 139.5 -130.5t156.5 -45.5 q103 0 182.5 56.5t119.5 143.5t40 186q0 148 -89.5 246t-232.5 98z" />
<glyph unicode="q" d="M582 1020q86 0 175 -41.5t153 -112.5v134h164v-1480h-164v650q-57 -87 -147 -143.5t-197 -56.5q-128 0 -234.5 64.5t-169 182.5t-62.5 267q0 243 136 389.5t346 146.5zM612 858q-154 0 -248 -110.5t-94 -263.5q0 -149 89.5 -250.5t232.5 -101.5q137 0 228 105t90 265 l-2 192q-66 82 -137 123t-159 41z" />
<glyph unicode="r" horiz-adv-x="804" d="M642 1020q66 0 122 -28v-196q-68 52 -146 52q-49 0 -90.5 -18t-76 -55t-60 -75t-57.5 -96v-604h-164v1000h164v-200q58 100 140.5 160t167.5 60z" />
<glyph unicode="s" horiz-adv-x="856" d="M468 1020q82 0 158.5 -23.5t115.5 -52.5v-176q-48 36 -120.5 64t-141.5 28q-88 0 -138 -41.5t-50 -94.5q0 -42 29 -80t93 -60l168 -60q194 -69 194 -248q0 -129 -104.5 -217.5t-263.5 -88.5q-82 0 -175 29.5t-133 58.5v176q48 -36 137.5 -70t158.5 -34q93 0 148.5 41 t55.5 105q0 46 -34 74.5t-110 55.5l-148 54q-109 41 -150.5 105.5t-41.5 158.5q0 129 97 212.5t255 83.5z" />
<glyph unicode="t" horiz-adv-x="866" d="M446 1000h292v-154h-292v-586q0 -64 32.5 -99t97.5 -35q90 0 170 48v-134q-46 -36 -91 -53t-115 -17q-125 0 -191.5 76t-66.5 206v594h-192v48q94 42 161 140t119 254h76v-288z" />
<glyph unicode="u" horiz-adv-x="1128" d="M988 1000v-592q0 -194 -120 -311t-304 -117t-304 117t-120 311v592h170v-592q0 -125 74 -196.5t180 -71.5t180 71.5t74 196.5v592h170z" />
<glyph unicode="v" horiz-adv-x="1082" d="M582 0h-102l-450 1000h196l302 -736l328 736h196z" />
<glyph unicode="w" horiz-adv-x="1512" d="M1132 0h-102l-274 706l-274 -706h-102l-350 1000h196l222 -702l262 702h92l262 -702l222 702h196z" />
<glyph unicode="x" horiz-adv-x="1118" d="M662 520l426 -520h-212l-316 404l-318 -404h-212l426 520l-420 480h212l312 -350l310 350h212z" />
<glyph unicode="y" horiz-adv-x="1142" d="M1112 1000l-736 -1480h-190l286 540l-442 940h196l350 -736l340 736h196z" />
<glyph unicode="z" horiz-adv-x="1098" d="M968 946l-602 -792h622v-154h-878v54l582 792h-542v154h818v-54z" />
<glyph unicode="{" horiz-adv-x="868" d="M788 1200h-88q-64 0 -103 -18t-59.5 -60.5t-27 -94t-6.5 -137.5v-210q0 -61 -35 -110t-95 -80q60 -31 95 -80t35 -110v-210q0 -68 4 -113t15.5 -85.5t33 -63t57 -35.5t86.5 -13h88v-180h-128q-155 0 -252.5 105t-97.5 259v272q0 94 -29.5 129t-120.5 35v180 q91 0 120.5 35t29.5 129v272q0 154 97.5 259t252.5 105h128v-180z" />
<glyph unicode="|" horiz-adv-x="460" d="M300 -400h-140v1810h140v-1810z" />
<glyph unicode="}" horiz-adv-x="868" d="M80 1380h128q155 0 252.5 -105t97.5 -259v-272q0 -94 29.5 -129t120.5 -35v-180q-91 0 -120.5 -35t-29.5 -129v-272q0 -154 -97.5 -259t-252.5 -105h-128v180h88q64 0 103 18t59.5 60.5t27 94t6.5 137.5v210q0 61 35 110t95 80q-60 31 -95 80t-35 110v210q0 68 -4 113 t-15.5 85.5t-33 63t-57 35.5t-86.5 13h-88v180z" />
<glyph unicode="~" horiz-adv-x="1048" d="M764 832h164q0 -106 -71.5 -178t-180.5 -72q-59 0 -107 19.5t-73.5 42.5t-58 42.5t-65.5 19.5q-40 0 -64 -32.5t-24 -79.5h-164q0 106 71.5 178t180.5 72q59 0 107 -19.5t73.5 -42.5t58 -42.5t65.5 -19.5q42 0 65 32t23 80z" />
<glyph unicode="&#xa1;" horiz-adv-x="484" d="M300 1096q-58 0 -99 41t-41 99q0 57 41 98.5t99 41.5q57 0 98.5 -41.5t41.5 -98.5q0 -58 -41.5 -99t-98.5 -41zM218 0v900h164v-900h-164z" />
<glyph unicode="&#xa2;" horiz-adv-x="1022" d="M922 922v-166q-130 97 -272 104v-730q142 7 272 104v-166q-33 -33 -107 -62.5t-165 -35.5v-130h-144v142q-180 39 -293 182.5t-113 329.5t113 330.5t293 183.5v152h144v-140q90 -5 164 -35.5t108 -62.5zM270 494q0 -118 64 -213.5t172 -132.5v694q-108 -37 -172 -133 t-64 -215z" />
<glyph unicode="&#xa3;" horiz-adv-x="1026" d="M742 1204q-97 -2 -166.5 -80t-69.5 -224v-144h312v-160h-312v-70q0 -108 -32.5 -197.5t-89.5 -148.5h578v-180h-782v140q80 28 121 143t41 243v70h-158v160h158v162q0 107 34 192.5t91.5 139t130.5 82t154 28.5q76 0 143 -28t103 -66v-160q-49 42 -118.5 70.5 t-137.5 27.5z" />
<glyph unicode="&#xa4;" horiz-adv-x="1084" d="M876 68l-128 128q-98 -60 -206 -60t-206 60l-128 -128l-108 102l130 124q-70 92 -70 210t70 210l-124 124l96 102l132 -128q98 60 208 60t208 -60l132 128l96 -102l-124 -124q70 -92 70 -210q0 -116 -68 -210l128 -124zM312 504q0 -100 66.5 -160t163.5 -60t163.5 60 t66.5 160t-66.5 160t-163.5 60t-163.5 -60t-66.5 -160z" />
<glyph unicode="&#xa5;" horiz-adv-x="1262" d="M810 676h244v-140h-326v-110h326v-140h-326v-286h-194v286h-324v140h324v98l-8 12h-316v140h228l-418 664h216l392 -632l398 632h216z" />
<glyph unicode="&#xa6;" horiz-adv-x="460" d="M300 578h-140v832h140v-832zM300 -400h-140v832h140v-832z" />
<glyph unicode="&#xa7;" horiz-adv-x="1046" d="M838 110q108 -90 108 -238q0 -106 -63.5 -192t-168.5 -133t-228 -47q-200 0 -384 130v186q202 -140 408 -140q105 0 178.5 51.5t73.5 136.5q0 35 -17 66t-49 55t-60 39t-66 32l-222 100q-138 62 -193 145.5t-55 202.5q0 128 94 232q-94 91 -94 248q0 104 61 191t163 136 t220 49q74 0 140.5 -18t103 -37t86.5 -51v-186q-157 116 -310 116q-66 0 -127 -20.5t-106 -69t-45 -116.5q0 -39 14 -69t45.5 -54.5t59.5 -40t79 -38.5l184 -84q145 -66 211.5 -142.5t66.5 -197.5q0 -140 -108 -242zM668 212l16 -8q78 52 78 140q0 35 -17 66t-49 55t-60 39 t-66 32l-218 98q-66 -53 -66 -136q0 -39 14 -69t45.5 -54.5t59.5 -40t79 -38.5z" />
<glyph unicode="&#xa8;" horiz-adv-x="992" d="M286 1438q51 0 88.5 -37t37.5 -89q0 -51 -37.5 -88.5t-88.5 -37.5q-52 0 -89 37.5t-37 88.5q0 52 37 89t89 37zM706 1438q51 0 88.5 -37t37.5 -89q0 -51 -37.5 -88.5t-88.5 -37.5q-52 0 -89 37.5t-37 88.5q0 52 37 89t89 37z" />
<glyph unicode="&#xa9;" horiz-adv-x="1768" d="M884 1446q165 0 311 -61.5t249.5 -166t163.5 -247.5t60 -301t-60 -301t-163.5 -247.5t-249.5 -166t-311 -61.5t-311 61.5t-249.5 166t-163.5 247.5t-60 301t60 301t163.5 247.5t249.5 166t311 61.5zM884 1298q-276 0 -447 -174.5t-171 -453.5t171 -453.5t447 -174.5 t447 174.5t171 453.5t-171 453.5t-447 174.5zM924 1104q80 0 146.5 -25.5t95.5 -54.5v-134q-113 84 -242 84q-127 0 -206.5 -87.5t-79.5 -208.5q0 -122 79.5 -209t206.5 -87q129 0 242 84v-134q-28 -30 -94.5 -55t-147.5 -25q-183 0 -303.5 124.5t-120.5 301.5 q0 115 53.5 212t151.5 155.5t219 58.5z" />
<glyph unicode="&#xad;" horiz-adv-x="842" d="M722 416h-602v180h602v-180z" />
<glyph unicode="&#xae;" horiz-adv-x="1768" d="M884 1446q165 0 311 -61.5t249.5 -166t163.5 -247.5t60 -301t-60 -301t-163.5 -247.5t-249.5 -166t-311 -61.5t-311 61.5t-249.5 166t-163.5 247.5t-60 301t60 301t163.5 247.5t249.5 166t311 61.5zM884 42q276 0 447 174.5t171 453.5t-171 453.5t-447 174.5t-447 -174.5 t-171 -453.5t171 -453.5t447 -174.5zM936 602l-40 2l388 -332h-164l-376 334v-334h-108v794h306q112 0 194 -61.5t82 -176.5q0 -71 -43 -123.5t-105.5 -77.5t-133.5 -25zM744 966v-254q78 -24 176 -24q89 0 138.5 37.5t49.5 102.5t-52 101.5t-132 36.5h-180z" />
<glyph unicode="&#xaf;" horiz-adv-x="1060" d="M880 1276h-700v160h700v-160z" />
<glyph unicode="&#xb0;" horiz-adv-x="886" d="M444 1370q147 0 244.5 -101t97.5 -243q0 -145 -97 -245.5t-245 -100.5t-246 101t-98 245q0 142 98 243t246 101zM444 1216q-78 0 -133 -57t-55 -133q0 -80 54.5 -137t133.5 -57q78 0 132 57t54 137q0 76 -54.5 133t-131.5 57z" />
<glyph unicode="&#xb1;" horiz-adv-x="1062" d="M440 576h-280v180h280v240h180v-240h280v-180h-280v-242h-180v242zM902 180v-180h-742v180h742z" />
<glyph unicode="&#xb4;" horiz-adv-x="628" d="M304 1170h-164l220 270h228z" />
<glyph unicode="&#xb6;" horiz-adv-x="1326" d="M1002 -420v1648h-240v-1648h-110v1004h-100q-87 0 -165.5 21.5t-144 65.5t-104 119t-38.5 172q0 99 38.5 174.5t104 118.5t143.5 64t166 21h554v-1760h-104z" />
<glyph unicode="&#xb7;" horiz-adv-x="600" d="M300 806q57 0 98.5 -41t41.5 -99q0 -57 -41.5 -98.5t-98.5 -41.5q-58 0 -99 41.5t-41 98.5q0 58 41 99t99 41z" />
<glyph unicode="&#xb8;" horiz-adv-x="706" d="M366 4l-12 -144q82 10 137 -35t55 -119q0 -81 -59.5 -133.5t-160.5 -52.5q-35 0 -81 13.5t-75 36.5l14 110q80 -42 148 -42q34 0 56 17.5t22 44.5t-20.5 42.5t-57.5 15.5t-70 -18l-32 24l28 240h108z" />
<glyph unicode="&#xbf;" horiz-adv-x="1120" d="M608 728q-57 0 -98.5 41t-41.5 99q0 57 41.5 98.5t98.5 41.5q58 0 99 -41.5t41 -98.5q0 -58 -41 -99t-99 -41zM590 -398q-182 0 -306 111t-124 279q0 69 38 131.5t92 109t107.5 88.5t90 86.5t34.5 86.5l-2 42h194v-80q0 -40 -36 -84t-87.5 -84.5t-103 -82t-87.5 -91 t-36 -96.5q0 -101 64.5 -163.5t181.5 -62.5q115 0 194.5 45t155.5 141v-218q-56 -68 -157 -113t-213 -45z" />
<glyph unicode="&#xc0;" horiz-adv-x="1382" d="M618 1510l-284 270h228l220 -270h-164zM1006 320h-628l-142 -320h-216l626 1340h90l626 -1340h-216zM932 490l-238 546l-242 -546h480z" />
<glyph unicode="&#xc1;" horiz-adv-x="1382" d="M752 1510h-164l220 270h228zM1006 320h-628l-142 -320h-216l626 1340h90l626 -1340h-216zM932 490l-238 546l-242 -546h480z" />
<glyph unicode="&#xc2;" horiz-adv-x="1382" d="M532 1502h-164l280 278h88l280 -278h-164l-160 156zM1006 320h-628l-142 -320h-216l626 1340h90l626 -1340h-216zM932 490l-238 546l-242 -546h480z" />
<glyph unicode="&#xc3;" horiz-adv-x="1382" d="M580 1644q-33 0 -52.5 -26.5t-19.5 -65.5h-136q0 88 59 147t149 59q49 0 89 -16t60.5 -35t48 -35t54.5 -16q34 0 53 26t19 66h136q0 -88 -59 -147t-149 -59q-49 0 -89 16t-60.5 35t-48 35t-54.5 16zM1006 320h-628l-142 -320h-216l626 1340h90l626 -1340h-216zM932 490 l-238 546l-242 -546h480z" />
<glyph unicode="&#xc4;" horiz-adv-x="1382" d="M482 1526q-52 0 -89 37.5t-37 88.5q0 52 37 89t89 37q51 0 88.5 -37t37.5 -89q0 -51 -37.5 -88.5t-88.5 -37.5zM902 1526q-52 0 -89 37.5t-37 88.5q0 52 37 89t89 37q51 0 88.5 -37t37.5 -89q0 -51 -37.5 -88.5t-88.5 -37.5zM1006 320h-628l-142 -320h-216l626 1340h90 l626 -1340h-216zM932 490l-238 546l-242 -546h480z" />
<glyph unicode="&#xc5;" horiz-adv-x="1382" d="M692 1458q-71 0 -118.5 48.5t-47.5 117.5t47.5 117.5t118.5 48.5t117.5 -48.5t46.5 -117.5t-46.5 -117.5t-117.5 -48.5zM692 1708q-34 0 -58 -25t-24 -59q0 -35 24 -59.5t58 -24.5q33 0 56.5 24.5t23.5 59.5q0 33 -23.5 58.5t-56.5 25.5zM1006 320h-628l-142 -320h-216 l626 1340h90l626 -1340h-216zM932 490l-238 546l-242 -546h480z" />
<glyph unicode="&#xc6;" horiz-adv-x="2164" d="M1266 1170v-398h652v-170h-652v-432h738v-170h-918v386h-556l-274 -386h-236l986 1340h998v-170h-738zM1086 540v698l-22 -102l-424 -596h446z" />
<glyph unicode="&#xc7;" horiz-adv-x="1348" d="M1248 302v-180q-71 -63 -175 -104.5t-229 -47.5l-10 -110q82 10 137 -35t55 -119q0 -81 -59.5 -133.5t-160.5 -52.5q-35 0 -81 13.5t-75 36.5l14 110q80 -42 148 -42q34 0 56 17.5t22 44.5t-20.5 42.5t-57.5 15.5t-70 -18l-32 24l24 210q-181 17 -326.5 114t-226.5 250.5 t-81 331.5q0 190 91.5 350.5t254 255t360.5 94.5q136 0 230 -37t172 -107v-198q-12 8 -46 33t-53.5 38.5t-57.5 34t-70.5 32t-79 20t-95.5 8.5q-225 0 -373.5 -149.5t-148.5 -374.5t148.5 -374.5t373.5 -149.5q238 0 442 156z" />
<glyph unicode="&#xc8;" horiz-adv-x="1298" d="M606 1510l-284 270h228l220 -270h-164zM400 1170v-398h652v-170h-652v-432h738v-170h-918v1340h918v-170h-738z" />
<glyph unicode="&#xc9;" horiz-adv-x="1298" d="M740 1510h-164l220 270h228zM400 1170v-398h652v-170h-652v-432h738v-170h-918v1340h918v-170h-738z" />
<glyph unicode="&#xca;" horiz-adv-x="1298" d="M520 1502h-164l280 278h88l280 -278h-164l-160 156zM400 1170v-398h652v-170h-652v-432h738v-170h-918v1340h918v-170h-738z" />
<glyph unicode="&#xcb;" horiz-adv-x="1298" d="M470 1526q-52 0 -89 37.5t-37 88.5q0 52 37 89t89 37q51 0 88.5 -37t37.5 -89q0 -51 -37.5 -88.5t-88.5 -37.5zM890 1526q-52 0 -89 37.5t-37 88.5q0 52 37 89t89 37q51 0 88.5 -37t37.5 -89q0 -51 -37.5 -88.5t-88.5 -37.5zM400 1170v-398h652v-170h-652v-432h738v-170 h-918v1340h918v-170h-738z" />
<glyph unicode="&#xcc;" horiz-adv-x="1072" d="M470 1510l-284 270h228l220 -270h-164zM626 1170v-1000h226v-170h-632v170h226v1000h-226v170h632v-170h-226z" />
<glyph unicode="&#xcd;" horiz-adv-x="1072" d="M604 1510h-164l220 270h228zM852 1340v-170h-226v-1000h226v-170h-632v170h226v1000h-226v170h632z" />
<glyph unicode="&#xce;" horiz-adv-x="1072" d="M384 1502h-164l280 278h88l280 -278h-164l-160 156zM852 1340v-170h-226v-1000h226v-170h-632v170h226v1000h-226v170h632z" />
<glyph unicode="&#xcf;" horiz-adv-x="1072" d="M334 1526q-52 0 -89 37.5t-37 88.5q0 52 37 89t89 37q51 0 88.5 -37t37.5 -89q0 -51 -37.5 -88.5t-88.5 -37.5zM754 1526q-52 0 -89 37.5t-37 88.5q0 52 37 89t89 37q51 0 88.5 -37t37.5 -89q0 -51 -37.5 -88.5t-88.5 -37.5zM852 1340v-170h-226v-1000h226v-170h-632v170 h226v1000h-226v170h632z" />
<glyph unicode="&#xd0;" horiz-adv-x="1518" d="M220 1340h426q125 0 239 -26.5t211.5 -80.5t169 -131t112 -184.5t40.5 -233.5q0 -200 -81.5 -358t-243.5 -252t-381 -94q-222 0 -492 50v556h-196v180h196v574zM712 150q158 0 278 71t182 191.5t62 271.5q0 119 -49.5 213.5t-132.5 153t-187 89t-219 30.5h-246v-404h226 v-180h-226v-416q167 -20 312 -20z" />
<glyph unicode="&#xd1;" horiz-adv-x="1558" d="M986 1748h136q0 -88 -59 -147t-149 -59q-49 0 -89 16t-60.5 35t-48 35t-54.5 16q-33 0 -52.5 -26.5t-19.5 -65.5h-136q0 88 59 147t149 59q49 0 89 -16t60.5 -35t48 -35t54.5 -16q34 0 53 26t19 66zM1338 0h-72l-866 958v-958h-180v1340h72l866 -970v970h180v-1340z" />
<glyph unicode="&#xd2;" horiz-adv-x="1612" d="M676 1780l220 -270h-164l-284 270h228zM806 1370q198 0 360.5 -94.5t254 -255t91.5 -350.5t-91.5 -350.5t-254 -255t-360.5 -94.5t-360.5 94.5t-254 255t-91.5 350.5t91.5 350.5t254 255t360.5 94.5zM806 1194q-225 0 -373.5 -149.5t-148.5 -374.5t148.5 -374.5 t373.5 -149.5t373.5 149.5t148.5 374.5t-148.5 374.5t-373.5 149.5z" />
<glyph unicode="&#xd3;" horiz-adv-x="1612" d="M866 1510h-164l220 270h228zM806 1370q198 0 360.5 -94.5t254 -255t91.5 -350.5t-91.5 -350.5t-254 -255t-360.5 -94.5t-360.5 94.5t-254 255t-91.5 350.5t91.5 350.5t254 255t360.5 94.5zM806 1194q-225 0 -373.5 -149.5t-148.5 -374.5t148.5 -374.5t373.5 -149.5 t373.5 149.5t148.5 374.5t-148.5 374.5t-373.5 149.5z" />
<glyph unicode="&#xd4;" horiz-adv-x="1612" d="M1130 1502h-164l-160 156l-160 -156h-164l280 278h88zM806 1370q198 0 360.5 -94.5t254 -255t91.5 -350.5t-91.5 -350.5t-254 -255t-360.5 -94.5t-360.5 94.5t-254 255t-91.5 350.5t91.5 350.5t254 255t360.5 94.5zM806 1194q-225 0 -373.5 -149.5t-148.5 -374.5 t148.5 -374.5t373.5 -149.5t373.5 149.5t148.5 374.5t-148.5 374.5t-373.5 149.5z" />
<glyph unicode="&#xd5;" horiz-adv-x="1612" d="M1018 1748h136q0 -88 -59 -147t-149 -59q-49 0 -89 16t-60.5 35t-48 35t-54.5 16q-33 0 -52.5 -26.5t-19.5 -65.5h-136q0 88 59 147t149 59q49 0 89 -16t60.5 -35t48 -35t54.5 -16q34 0 53 26t19 66zM806 1370q198 0 360.5 -94.5t254 -255t91.5 -350.5t-91.5 -350.5 t-254 -255t-360.5 -94.5t-360.5 94.5t-254 255t-91.5 350.5t91.5 350.5t254 255t360.5 94.5zM806 1194q-225 0 -373.5 -149.5t-148.5 -374.5t148.5 -374.5t373.5 -149.5t373.5 149.5t148.5 374.5t-148.5 374.5t-373.5 149.5z" />
<glyph unicode="&#xd6;" horiz-adv-x="1612" d="M596 1778q51 0 88.5 -37t37.5 -89q0 -51 -37.5 -88.5t-88.5 -37.5q-52 0 -89 37.5t-37 88.5q0 52 37 89t89 37zM1016 1778q51 0 88.5 -37t37.5 -89q0 -51 -37.5 -88.5t-88.5 -37.5q-52 0 -89 37.5t-37 88.5q0 52 37 89t89 37zM806 1370q198 0 360.5 -94.5t254 -255 t91.5 -350.5t-91.5 -350.5t-254 -255t-360.5 -94.5t-360.5 94.5t-254 255t-91.5 350.5t91.5 350.5t254 255t360.5 94.5zM806 1194q-225 0 -373.5 -149.5t-148.5 -374.5t148.5 -374.5t373.5 -149.5t373.5 149.5t148.5 374.5t-148.5 374.5t-373.5 149.5z" />
<glyph unicode="&#xd7;" horiz-adv-x="1000" d="M628 626l212 -212l-128 -128l-212 212l-212 -214l-128 128l214 214l-212 212l126 128l212 -212l212 212l128 -128z" />
<glyph unicode="&#xd8;" horiz-adv-x="1612" d="M1404 1290l-98 -122q98 -98 152 -226.5t54 -271.5q0 -190 -91.5 -350.5t-254 -255t-360.5 -94.5q-206 0 -376 104l-82 -104l-98 80l80 100q-109 97 -169.5 232t-60.5 288q0 190 91.5 350.5t254 255t360.5 94.5q223 0 400 -120l94 120zM284 670q0 -232 156 -382l656 824 q-129 82 -290 82q-225 0 -373.5 -149.5t-148.5 -374.5zM806 146q225 0 373.5 149.5t148.5 374.5q0 211 -134 358l-652 -816q119 -66 264 -66z" />
<glyph unicode="&#xd9;" horiz-adv-x="1504" d="M622 1780l220 -270h-164l-284 270h228zM1304 1344v-814q0 -171 -73 -298.5t-197 -192.5t-282 -65t-282 65t-197 192.5t-73 298.5v814h180v-808q0 -99 29.5 -173.5t82 -118.5t118 -65.5t142.5 -20.5q78 1 143 22.5t117.5 65t82 117.5t29.5 173v808h180z" />
<glyph unicode="&#xda;" horiz-adv-x="1504" d="M812 1510h-164l220 270h228zM1304 1344v-814q0 -171 -73 -298.5t-197 -192.5t-282 -65t-282 65t-197 192.5t-73 298.5v814h180v-808q0 -99 29.5 -173.5t82 -118.5t118 -65.5t142.5 -20.5q78 1 143 22.5t117.5 65t82 117.5t29.5 173v808h180z" />
<glyph unicode="&#xdb;" horiz-adv-x="1504" d="M1076 1502h-164l-160 156l-160 -156h-164l280 278h88zM1304 1344v-814q0 -171 -73 -298.5t-197 -192.5t-282 -65t-282 65t-197 192.5t-73 298.5v814h180v-808q0 -99 29.5 -173.5t82 -118.5t118 -65.5t142.5 -20.5q78 1 143 22.5t117.5 65t82 117.5t29.5 173v808h180z" />
<glyph unicode="&#xdc;" horiz-adv-x="1504" d="M542 1778q51 0 88.5 -37t37.5 -89q0 -51 -37.5 -88.5t-88.5 -37.5q-52 0 -89 37.5t-37 88.5q0 52 37 89t89 37zM962 1778q51 0 88.5 -37t37.5 -89q0 -51 -37.5 -88.5t-88.5 -37.5q-52 0 -89 37.5t-37 88.5q0 52 37 89t89 37zM1304 1344v-814q0 -171 -73 -298.5 t-197 -192.5t-282 -65t-282 65t-197 192.5t-73 298.5v814h180v-808q0 -99 29.5 -173.5t82 -118.5t118 -65.5t142.5 -20.5q78 1 143 22.5t117.5 65t82 117.5t29.5 173v808h180z" />
<glyph unicode="&#xdd;" horiz-adv-x="1262" d="M692 1510h-164l220 270h228zM728 550v-550h-194v524l-514 816h216l392 -632l398 632h216z" />
<glyph unicode="&#xde;" horiz-adv-x="1268" d="M414 1100h302q116 0 218.5 -48t168 -140t65.5 -208q0 -83 -31 -156.5t-87 -129.5t-142 -89t-190 -33q-157 0 -304 48v-344h-194v1340h194v-240zM414 920v-394q110 -60 292 -60q130 0 194 65.5t64 172.5q0 99 -83.5 157.5t-214.5 58.5h-252z" />
<glyph unicode="&#xdf;" horiz-adv-x="1296" d="M528 1450q71 0 136 -21.5t118.5 -62.5t85.5 -109t32 -153q0 -58 -18 -105.5t-43.5 -78.5t-51 -58.5t-43.5 -58.5t-18 -65q0 -23 9.5 -41.5t31.5 -35t37 -25.5t49 -24.5t45 -21.5l114 -58q204 -104 204 -262q0 -135 -106 -212.5t-252 -77.5q-170 0 -296 90v174 q132 -104 296 -104q84 0 140 35.5t56 96.5q0 26 -20.5 52.5t-51 46.5t-52 32t-38.5 19l-142 58q-86 36 -136 97t-50 143q0 49 18 95t43.5 81.5t51 69.5t43.5 71.5t18 74.5q0 79 -62 131.5t-138 50.5q-204 -4 -204 -224v-1070h-164v1088q0 95 31.5 168t84.5 113.5t114 60.5 t128 20z" />
<glyph unicode="&#xe0;" d="M492 1440l220 -270h-164l-284 270h228zM582 1020q86 0 175 -41.5t153 -112.5v134h164v-1000h-164v170q-57 -87 -147 -143.5t-197 -56.5q-128 0 -234.5 64.5t-169 182.5t-62.5 267q0 243 136 389.5t346 146.5zM612 860q-154 0 -248 -111.5t-94 -264.5q0 -149 90 -251.5 t232 -102.5q137 0 228 106t90 266l-2 192q-66 82 -137 124t-159 42z" />
<glyph unicode="&#xe1;" d="M682 1170h-164l220 270h228zM582 1020q86 0 175 -41.5t153 -112.5v134h164v-1000h-164v170q-57 -87 -147 -143.5t-197 -56.5q-128 0 -234.5 64.5t-169 182.5t-62.5 267q0 243 136 389.5t346 146.5zM612 860q-154 0 -248 -111.5t-94 -264.5q0 -149 90 -251.5t232 -102.5 q137 0 228 106t90 266l-2 192q-66 82 -137 124t-159 42z" />
<glyph unicode="&#xe2;" d="M946 1162h-164l-160 156l-160 -156h-164l280 278h88zM582 1020q86 0 175 -41.5t153 -112.5v134h164v-1000h-164v170q-57 -87 -147 -143.5t-197 -56.5q-128 0 -234.5 64.5t-169 182.5t-62.5 267q0 243 136 389.5t346 146.5zM612 860q-154 0 -248 -111.5t-94 -264.5 q0 -149 90 -251.5t232 -102.5q137 0 228 106t90 266l-2 192q-66 82 -137 124t-159 42z" />
<glyph unicode="&#xe3;" d="M834 1408h136q0 -88 -59 -147t-149 -59q-49 0 -89 16t-60.5 35t-48 35t-54.5 16q-33 0 -52.5 -26.5t-19.5 -65.5h-136q0 88 59 147t149 59q49 0 89 -16t60.5 -35t48 -35t54.5 -16q34 0 53 26t19 66zM582 1020q86 0 175 -41.5t153 -112.5v134h164v-1000h-164v170 q-57 -87 -147 -143.5t-197 -56.5q-128 0 -234.5 64.5t-169 182.5t-62.5 267q0 243 136 389.5t346 146.5zM612 860q-154 0 -248 -111.5t-94 -264.5q0 -149 90 -251.5t232 -102.5q137 0 228 106t90 266l-2 192q-66 82 -137 124t-159 42z" />
<glyph unicode="&#xe4;" d="M412 1438q51 0 88.5 -37t37.5 -89q0 -51 -37.5 -88.5t-88.5 -37.5q-52 0 -89 37.5t-37 88.5q0 52 37 89t89 37zM832 1438q51 0 88.5 -37t37.5 -89q0 -51 -37.5 -88.5t-88.5 -37.5q-52 0 -89 37.5t-37 88.5q0 52 37 89t89 37zM582 1020q86 0 175 -41.5t153 -112.5v134h164 v-1000h-164v170q-57 -87 -147 -143.5t-197 -56.5q-128 0 -234.5 64.5t-169 182.5t-62.5 267q0 243 136 389.5t346 146.5zM612 860q-154 0 -248 -111.5t-94 -264.5q0 -149 90 -251.5t232 -102.5q137 0 228 106t90 266l-2 192q-66 82 -137 124t-159 42z" />
<glyph unicode="&#xe5;" d="M622 1450q71 0 117.5 -48.5t46.5 -117.5t-46.5 -117.5t-117.5 -48.5t-118.5 48.5t-47.5 117.5t47.5 117.5t118.5 48.5zM622 1368q-34 0 -58 -25t-24 -59q0 -35 24 -59.5t58 -24.5q33 0 56.5 24.5t23.5 59.5q0 33 -23.5 58.5t-56.5 25.5zM582 1020q86 0 175 -41.5 t153 -112.5v134h164v-1000h-164v170q-57 -87 -147 -143.5t-197 -56.5q-128 0 -234.5 64.5t-169 182.5t-62.5 267q0 243 136 389.5t346 146.5zM612 860q-154 0 -248 -111.5t-94 -264.5q0 -149 90 -251.5t232 -102.5q137 0 228 106t90 266l-2 192q-66 82 -137 124t-159 42z " />
<glyph unicode="&#xe6;" horiz-adv-x="1974" d="M1874 534v-98h-768q19 -131 113.5 -218.5t234.5 -87.5q51 0 96 10t85.5 30.5t62 34.5t56.5 39v-166q-40 -40 -118 -74t-182 -34q-113 0 -211 42.5t-169 117.5v-130h-164v170q-57 -87 -147 -143.5t-197 -56.5q-128 0 -234.5 64.5t-169 182.5t-62.5 267q0 243 136 389.5 t346 146.5q86 0 175 -41.5t153 -112.5v134h164v-130q137 150 340 150q113 0 201.5 -37t144.5 -103.5t85 -154t29 -191.5zM592 130q137 0 228 106t90 266l-2 192q-66 82 -137 124t-159 42q-154 0 -248 -111.5t-94 -264.5q0 -149 90 -251.5t232 -102.5zM1110 576h602 q-14 138 -99.5 211t-198.5 73q-119 0 -200.5 -80.5t-103.5 -203.5z" />
<glyph unicode="&#xe7;" horiz-adv-x="1022" d="M622 860q-156 0 -254 -107.5t-98 -258.5q0 -150 98 -257t254 -107q159 0 300 104v-166q-34 -34 -113 -64.5t-173 -33.5l-10 -110q82 10 137 -35t55 -119q0 -81 -59.5 -133.5t-160.5 -52.5q-35 0 -81 13.5t-75 36.5l14 110q80 -42 148 -42q34 0 56 17.5t22 44.5 t-20.5 42.5t-57.5 15.5t-70 -18l-32 24l24 214q-188 33 -307 178.5t-119 337.5q0 105 39 201.5t107.5 168t166.5 114t209 42.5q99 0 181 -31.5t119 -66.5v-166q-141 104 -300 104z" />
<glyph unicode="&#xe8;" horiz-adv-x="1142" d="M682 1170h-164l-284 270h228zM1042 534v-98h-768q19 -131 113.5 -218.5t234.5 -87.5q51 0 96 10t85.5 30.5t62 34.5t56.5 39v-166q-40 -40 -118 -74t-182 -34q-148 0 -268.5 71.5t-187 191.5t-66.5 261t61 261.5t172.5 192.5t248.5 72q113 0 201.5 -37t144.5 -103.5 t85 -154t29 -191.5zM278 576h602q-14 138 -99.5 211t-198.5 73q-119 0 -200.5 -80.5t-103.5 -203.5z" />
<glyph unicode="&#xe9;" horiz-adv-x="1142" d="M936 1440l-284 -270h-164l220 270h228zM1042 534v-98h-768q19 -131 113.5 -218.5t234.5 -87.5q51 0 96 10t85.5 30.5t62 34.5t56.5 39v-166q-40 -40 -118 -74t-182 -34q-148 0 -268.5 71.5t-187 191.5t-66.5 261t61 261.5t172.5 192.5t248.5 72q113 0 201.5 -37 t144.5 -103.5t85 -154t29 -191.5zM278 576h602q-14 138 -99.5 211t-198.5 73q-119 0 -200.5 -80.5t-103.5 -203.5z" />
<glyph unicode="&#xea;" horiz-adv-x="1142" d="M592 1318l-160 -156h-164l280 278h88l280 -278h-164zM1042 534v-98h-768q19 -131 113.5 -218.5t234.5 -87.5q51 0 96 10t85.5 30.5t62 34.5t56.5 39v-166q-40 -40 -118 -74t-182 -34q-148 0 -268.5 71.5t-187 191.5t-66.5 261t61 261.5t172.5 192.5t248.5 72 q113 0 201.5 -37t144.5 -103.5t85 -154t29 -191.5zM278 576h602q-14 138 -99.5 211t-198.5 73q-119 0 -200.5 -80.5t-103.5 -203.5z" />
<glyph unicode="&#xeb;" horiz-adv-x="1142" d="M382 1186q-52 0 -89 37.5t-37 88.5q0 52 37 89t89 37q51 0 88.5 -37t37.5 -89q0 -51 -37.5 -88.5t-88.5 -37.5zM802 1186q-52 0 -89 37.5t-37 88.5q0 52 37 89t89 37q51 0 88.5 -37t37.5 -89q0 -51 -37.5 -88.5t-88.5 -37.5zM1042 534v-98h-768q19 -131 113.5 -218.5 t234.5 -87.5q51 0 96 10t85.5 30.5t62 34.5t56.5 39v-166q-40 -40 -118 -74t-182 -34q-148 0 -268.5 71.5t-187 191.5t-66.5 261t61 261.5t172.5 192.5t248.5 72q113 0 201.5 -37t144.5 -103.5t85 -154t29 -191.5zM278 576h602q-14 138 -99.5 211t-198.5 73 q-119 0 -200.5 -80.5t-103.5 -203.5z" />
<glyph unicode="&#xec;" horiz-adv-x="568" d="M266 1170l-284 270h228l220 -270h-164zM454 1000v-1000h-164v846h-158v154h322z" />
<glyph unicode="&#xed;" horiz-adv-x="558" d="M334 1170h-164l220 270h228zM432 1000v-1000h-164v846h-158v154h322z" />
<glyph unicode="&#xee;" horiz-adv-x="598" d="M304 1318l-160 -156h-164l280 278h88l280 -278h-164zM484 1000v-1000h-164v846h-158v154h322z" />
<glyph unicode="&#xef;" horiz-adv-x="592" d="M212 1312q0 -51 -37.5 -88.5t-88.5 -37.5q-52 0 -89 37.5t-37 88.5q0 52 37 89t89 37q51 0 88.5 -37t37.5 -89zM506 1438q51 0 88.5 -37t37.5 -89q0 -51 -37.5 -88.5t-88.5 -37.5q-52 0 -89 37.5t-37 88.5q0 52 37 89t89 37zM454 1000v-1000h-164v846h-158v154h322z" />
<glyph unicode="&#xf0;" horiz-adv-x="1234" d="M1062 1256l-158 -68q230 -286 230 -636q0 -160 -64 -292.5t-181.5 -211t-266.5 -78.5q-148 0 -268.5 71.5t-187 191.5t-66.5 261q0 105 39 201.5t107.5 168t166.5 114t209 42.5q188 0 344 -188q-47 146 -184 304l-198 -84l-42 108l154 66q-73 65 -110 92l80 102 q91 -72 156 -140l198 84zM622 130q156 0 254 107t98 257q0 151 -98 258.5t-254 107.5t-254 -107.5t-98 -258.5q0 -150 98 -257t254 -107z" />
<glyph unicode="&#xf1;" horiz-adv-x="1170" d="M500 1304q-33 0 -52.5 -26.5t-19.5 -65.5h-136q0 88 59 147t149 59q49 0 89 -16t60.5 -35t48 -35t54.5 -16q34 0 53 26t19 66h136q0 -88 -59 -147t-149 -59q-49 0 -89 16t-60.5 35t-48 35t-54.5 16zM660 1020q161 0 265.5 -106t104.5 -304v-610h-164l-2 594 q0 266 -232 266q-75 0 -153.5 -55.5t-144.5 -140.5v-664h-164v1000h164v-158q55 69 144 123.5t182 54.5z" />
<glyph unicode="&#xf2;" d="M492 1440l220 -270h-164l-284 270h228zM622 1020q111 0 209 -42.5t166.5 -114t107.5 -168t39 -201.5q0 -141 -66.5 -261t-187 -191.5t-268.5 -71.5t-268.5 71.5t-187 191.5t-66.5 261q0 105 39 201.5t107.5 168t166.5 114t209 42.5zM622 860q-156 0 -254 -107.5 t-98 -258.5q0 -150 98 -257t254 -107t254 107t98 257q0 151 -98 258.5t-254 107.5z" />
<glyph unicode="&#xf3;" d="M682 1170h-164l220 270h228zM622 1020q111 0 209 -42.5t166.5 -114t107.5 -168t39 -201.5q0 -141 -66.5 -261t-187 -191.5t-268.5 -71.5t-268.5 71.5t-187 191.5t-66.5 261q0 105 39 201.5t107.5 168t166.5 114t209 42.5zM622 860q-156 0 -254 -107.5t-98 -258.5 q0 -150 98 -257t254 -107t254 107t98 257q0 151 -98 258.5t-254 107.5z" />
<glyph unicode="&#xf4;" d="M946 1162h-164l-160 156l-160 -156h-164l280 278h88zM622 1020q111 0 209 -42.5t166.5 -114t107.5 -168t39 -201.5q0 -141 -66.5 -261t-187 -191.5t-268.5 -71.5t-268.5 71.5t-187 191.5t-66.5 261q0 105 39 201.5t107.5 168t166.5 114t209 42.5zM622 860 q-156 0 -254 -107.5t-98 -258.5q0 -150 98 -257t254 -107t254 107t98 257q0 151 -98 258.5t-254 107.5z" />
<glyph unicode="&#xf5;" d="M834 1408h136q0 -88 -59 -147t-149 -59q-49 0 -89 16t-60.5 35t-48 35t-54.5 16q-33 0 -52.5 -26.5t-19.5 -65.5h-136q0 88 59 147t149 59q49 0 89 -16t60.5 -35t48 -35t54.5 -16q34 0 53 26t19 66zM622 1020q111 0 209 -42.5t166.5 -114t107.5 -168t39 -201.5 q0 -141 -66.5 -261t-187 -191.5t-268.5 -71.5t-268.5 71.5t-187 191.5t-66.5 261q0 105 39 201.5t107.5 168t166.5 114t209 42.5zM622 860q-156 0 -254 -107.5t-98 -258.5q0 -150 98 -257t254 -107t254 107t98 257q0 151 -98 258.5t-254 107.5z" />
<glyph unicode="&#xf6;" d="M412 1438q51 0 88.5 -37t37.5 -89q0 -51 -37.5 -88.5t-88.5 -37.5q-52 0 -89 37.5t-37 88.5q0 52 37 89t89 37zM832 1438q51 0 88.5 -37t37.5 -89q0 -51 -37.5 -88.5t-88.5 -37.5q-52 0 -89 37.5t-37 88.5q0 52 37 89t89 37zM622 1020q111 0 209 -42.5t166.5 -114 t107.5 -168t39 -201.5q0 -141 -66.5 -261t-187 -191.5t-268.5 -71.5t-268.5 71.5t-187 191.5t-66.5 261q0 105 39 201.5t107.5 168t166.5 114t209 42.5zM622 860q-156 0 -254 -107.5t-98 -258.5q0 -150 98 -257t254 -107t254 107t98 257q0 151 -98 258.5t-254 107.5z" />
<glyph unicode="&#xf7;" horiz-adv-x="1102" d="M552 1114q51 0 88.5 -37t37.5 -89q0 -51 -37.5 -88.5t-88.5 -37.5q-52 0 -89 37.5t-37 88.5q0 52 37 89t89 37zM942 536h-782v180h782v-180zM552 386q51 0 88.5 -37t37.5 -89q0 -51 -37.5 -88.5t-88.5 -37.5q-52 0 -89 37.5t-37 88.5q0 52 37 89t89 37z" />
<glyph unicode="&#xf8;" horiz-adv-x="1224" d="M1110 940l-94 -98q128 -147 128 -348q0 -141 -66.5 -261t-187 -191.5t-268.5 -71.5q-184 0 -326 110l-104 -110l-98 80l114 122q-108 140 -108 322q0 105 39 201.5t107.5 168t166.5 114t209 42.5q168 0 298 -92l86 92zM270 494q0 -108 54 -200l484 514q-80 52 -186 52 q-156 0 -254 -107.5t-98 -258.5zM622 130q156 0 254 107t98 257q0 133 -72 226l-492 -520q89 -70 212 -70z" />
<glyph unicode="&#xf9;" horiz-adv-x="1128" d="M444 1440l220 -270h-164l-284 270h228zM988 1000v-592q0 -194 -120 -311t-304 -117t-304 117t-120 311v592h170v-592q0 -125 74 -196.5t180 -71.5t180 71.5t74 196.5v592h170z" />
<glyph unicode="&#xfa;" horiz-adv-x="1128" d="M634 1170h-164l220 270h228zM988 1000v-592q0 -194 -120 -311t-304 -117t-304 117t-120 311v592h170v-592q0 -125 74 -196.5t180 -71.5t180 71.5t74 196.5v592h170z" />
<glyph unicode="&#xfb;" horiz-adv-x="1128" d="M898 1162h-164l-160 156l-160 -156h-164l280 278h88zM988 1000v-592q0 -194 -120 -311t-304 -117t-304 117t-120 311v592h170v-592q0 -125 74 -196.5t180 -71.5t180 71.5t74 196.5v592h170z" />
<glyph unicode="&#xfc;" horiz-adv-x="1128" d="M364 1438q51 0 88.5 -37t37.5 -89q0 -51 -37.5 -88.5t-88.5 -37.5q-52 0 -89 37.5t-37 88.5q0 52 37 89t89 37zM784 1438q51 0 88.5 -37t37.5 -89q0 -51 -37.5 -88.5t-88.5 -37.5q-52 0 -89 37.5t-37 88.5q0 52 37 89t89 37zM988 1000v-592q0 -194 -120 -311t-304 -117 t-304 117t-120 311v592h170v-592q0 -125 74 -196.5t180 -71.5t180 71.5t74 196.5v592h170z" />
<glyph unicode="&#xfd;" horiz-adv-x="1142" d="M630 1170h-164l220 270h228zM1112 1000l-736 -1480h-190l286 540l-442 940h196l350 -736l340 736h196z" />
<glyph unicode="&#xfe;" d="M334 1440v-610q56 85 145.5 137.5t198.5 52.5q129 0 235 -62t168.5 -178t62.5 -264q0 -243 -136 -389.5t-346 -146.5q-86 0 -175 41.5t-153 112.5v-614h-164v1920h164zM652 858q-138 0 -228.5 -100.5t-89.5 -259.5l2 -192q66 -82 137 -123t159 -41q154 0 248 110.5 t94 263.5q0 148 -89 245t-233 97z" />
<glyph unicode="&#xff;" horiz-adv-x="1142" d="M360 1186q-52 0 -89 37.5t-37 88.5q0 52 37 89t89 37q51 0 88.5 -37t37.5 -89q0 -51 -37.5 -88.5t-88.5 -37.5zM780 1186q-52 0 -89 37.5t-37 88.5q0 52 37 89t89 37q51 0 88.5 -37t37.5 -89q0 -51 -37.5 -88.5t-88.5 -37.5zM1112 1000l-736 -1480h-190l286 540l-442 940 h196l350 -736l340 736h196z" />
<glyph unicode="&#x100;" horiz-adv-x="1382" d="M1042 1616h-700v160h700v-160zM1006 320h-628l-142 -320h-216l626 1340h90l626 -1340h-216zM932 490l-238 546l-242 -546h480z" />
<glyph unicode="&#x101;" d="M972 1276h-700v160h700v-160zM582 1020q86 0 175 -41.5t153 -112.5v134h164v-1000h-164v170q-57 -87 -147 -143.5t-197 -56.5q-128 0 -234.5 64.5t-169 182.5t-62.5 267q0 243 136 389.5t346 146.5zM612 860q-154 0 -248 -111.5t-94 -264.5q0 -149 90 -251.5t232 -102.5 q137 0 228 106t90 266l-2 192q-66 82 -137 124t-159 42z" />
<glyph unicode="&#x102;" horiz-adv-x="1382" d="M692 1480q-137 0 -228.5 82t-95.5 218h144q9 -74 56 -119t124 -45t124 45t56 119h144q-4 -136 -95.5 -218t-228.5 -82zM1006 320h-628l-142 -320h-216l626 1340h90l626 -1340h-216zM932 490l-238 546l-242 -546h480z" />
<glyph unicode="&#x103;" d="M802 1440h144q-4 -136 -95.5 -218t-228.5 -82t-228.5 82t-95.5 218h144q9 -74 56 -119t124 -45t124 45t56 119zM582 1020q86 0 175 -41.5t153 -112.5v134h164v-1000h-164v170q-57 -87 -147 -143.5t-197 -56.5q-128 0 -234.5 64.5t-169 182.5t-62.5 267q0 243 136 389.5 t346 146.5zM612 860q-154 0 -248 -111.5t-94 -264.5q0 -149 90 -251.5t232 -102.5q137 0 228 106t90 266l-2 192q-66 82 -137 124t-159 42z" />
<glyph unicode="&#x104;" horiz-adv-x="1382" d="M1110 -196q0 -44 28 -73t78 -29q54 0 108 36v-138q-2 -1 -23.5 -13t-35 -18t-39 -12.5t-50.5 -6.5q-97 0 -165.5 52t-68.5 146q0 48 22.5 92t57.5 75t69.5 52t66.5 33h-12l-140 320h-628l-142 -320h-216l626 1340h90l626 -1340h-42q-84 -34 -147 -85.5t-63 -110.5z M932 490l-238 546l-242 -546h480z" />
<glyph unicode="&#x105;" d="M1074 0h-8q-84 -34 -147 -85.5t-63 -110.5q0 -44 28 -73t78 -29q54 0 108 36v-138q-3 -1 -24 -13t-34.5 -18t-39 -12.5t-50.5 -6.5q-97 0 -165.5 52t-68.5 146q0 49 23.5 94t60.5 76.5t71.5 52t66.5 31.5v168q-57 -87 -147 -143.5t-197 -56.5q-128 0 -234.5 64.5 t-169 182.5t-62.5 267q0 243 136 389.5t346 146.5q86 0 175 -41.5t153 -112.5v134h164v-1000zM592 130q137 0 228 106t90 266l-2 192q-66 82 -137 124t-159 42q-154 0 -248 -111.5t-94 -264.5q0 -149 90 -251.5t232 -102.5z" />
<glyph unicode="&#x106;" horiz-adv-x="1348" d="M870 1510h-164l220 270h228zM806 1370q136 0 230 -37t172 -107v-198q-12 8 -46 33t-53.5 38.5t-57.5 34t-70.5 32t-79 20t-95.5 8.5q-225 0 -373.5 -149.5t-148.5 -374.5t148.5 -374.5t373.5 -149.5q238 0 442 156v-180q-76 -68 -190 -110t-252 -42q-198 0 -360.5 94.5 t-254 255t-91.5 350.5t91.5 350.5t254 255t360.5 94.5z" />
<glyph unicode="&#x107;" horiz-adv-x="1022" d="M660 1170h-164l220 270h228zM622 1020q99 0 181 -31.5t119 -66.5v-166q-141 104 -300 104q-156 0 -254 -107.5t-98 -258.5q0 -150 98 -257t254 -107q159 0 300 104v-166q-36 -36 -118 -67t-182 -31q-148 0 -268.5 71.5t-187 191.5t-66.5 261q0 105 39 201.5t107.5 168 t166.5 114t209 42.5z" />
<glyph unicode="&#x10c;" horiz-adv-x="1348" d="M650 1780l160 -156l160 156h164l-280 -278h-88l-280 278h164zM806 1370q136 0 230 -37t172 -107v-198q-12 8 -46 33t-53.5 38.5t-57.5 34t-70.5 32t-79 20t-95.5 8.5q-225 0 -373.5 -149.5t-148.5 -374.5t148.5 -374.5t373.5 -149.5q238 0 442 156v-180 q-76 -68 -190 -110t-252 -42q-198 0 -360.5 94.5t-254 255t-91.5 350.5t91.5 350.5t254 255t360.5 94.5z" />
<glyph unicode="&#x10d;" horiz-adv-x="1022" d="M440 1440l160 -156l160 156h164l-280 -278h-88l-280 278h164zM622 1020q99 0 181 -31.5t119 -66.5v-166q-141 104 -300 104q-156 0 -254 -107.5t-98 -258.5q0 -150 98 -257t254 -107q159 0 300 104v-166q-36 -36 -118 -67t-182 -31q-148 0 -268.5 71.5t-187 191.5 t-66.5 261q0 105 39 201.5t107.5 168t166.5 114t209 42.5z" />
<glyph unicode="&#x10e;" horiz-adv-x="1518" d="M574 1780l160 -156l160 156h164l-280 -278h-88l-280 278h164zM220 1340h426q125 0 239 -26.5t211.5 -80.5t169 -131t112 -184.5t40.5 -233.5q0 -200 -81.5 -358t-243.5 -252t-381 -94q-222 0 -492 50v1310zM400 1170v-1000q167 -20 312 -20q158 0 278 71t182 191.5 t62 271.5q0 119 -49.5 213.5t-132.5 153t-187 89t-219 30.5h-246z" />
<glyph unicode="&#x10f;" horiz-adv-x="1446" d="M1074 0h-164v170q-57 -87 -147 -143.5t-197 -56.5q-128 0 -234.5 64.5t-169 182.5t-62.5 267q0 243 136 389.5t346 146.5q86 0 175 -41.5t153 -112.5v574h164v-1440zM1406 1436l-60 -376h-134l20 376h174zM612 856q-154 0 -248 -109.5t-94 -262.5q0 -149 90 -251.5 t232 -102.5q137 0 228 106t90 266l-2 192q-66 81 -136.5 121.5t-159.5 40.5z" />
<glyph unicode="&#x110;" horiz-adv-x="1518" d="M220 1340h426q125 0 239 -26.5t211.5 -80.5t169 -131t112 -184.5t40.5 -233.5q0 -200 -81.5 -358t-243.5 -252t-381 -94q-222 0 -492 50v556h-196v180h196v574zM712 150q158 0 278 71t182 191.5t62 271.5q0 119 -49.5 213.5t-132.5 153t-187 89t-219 30.5h-246v-404h226 v-180h-226v-416q167 -20 312 -20z" />
<glyph unicode="&#x111;" horiz-adv-x="1224" d="M1216 1118h-142v-1118h-164v170q-57 -87 -147 -143.5t-197 -56.5q-128 0 -234.5 64.5t-169 182.5t-62.5 267q0 243 136 389.5t346 146.5q86 0 175 -41.5t153 -112.5v252h-294v160h294v162h164v-162h142v-160zM592 130q137 0 228 106t90 266l-2 192q-66 81 -136.5 121.5 t-159.5 40.5q-154 0 -248 -109.5t-94 -262.5q0 -149 90 -251.5t232 -102.5z" />
<glyph unicode="&#x112;" horiz-adv-x="1298" d="M1030 1616h-700v160h700v-160zM400 1170v-398h652v-170h-652v-432h738v-170h-918v1340h918v-170h-738z" />
<glyph unicode="&#x113;" horiz-adv-x="1142" d="M942 1436v-160h-700v160h700zM1042 534v-98h-768q19 -131 113.5 -218.5t234.5 -87.5q51 0 96 10t85.5 30.5t62 34.5t56.5 39v-166q-40 -40 -118 -74t-182 -34q-148 0 -268.5 71.5t-187 191.5t-66.5 261t61 261.5t172.5 192.5t248.5 72q113 0 201.5 -37t144.5 -103.5 t85 -154t29 -191.5zM278 576h602q-14 138 -99.5 211t-198.5 73q-119 0 -200.5 -80.5t-103.5 -203.5z" />
<glyph unicode="&#x116;" horiz-adv-x="1298" d="M680 1528q-52 0 -89 37.5t-37 88.5q0 52 37 89t89 37q51 0 88.5 -37t37.5 -89q0 -51 -37.5 -88.5t-88.5 -37.5zM400 1170v-398h652v-170h-652v-432h738v-170h-918v1340h918v-170h-738z" />
<glyph unicode="&#x117;" horiz-adv-x="1142" d="M592 1188q-52 0 -89 37.5t-37 88.5q0 52 37 89t89 37q51 0 88.5 -37t37.5 -89q0 -51 -37.5 -88.5t-88.5 -37.5zM1042 534v-98h-768q19 -131 113.5 -218.5t234.5 -87.5q51 0 96 10t85.5 30.5t62 34.5t56.5 39v-166q-40 -40 -118 -74t-182 -34q-148 0 -268.5 71.5 t-187 191.5t-66.5 261t61 261.5t172.5 192.5t248.5 72q113 0 201.5 -37t144.5 -103.5t85 -154t29 -191.5zM278 576h602q-14 138 -99.5 211t-198.5 73q-119 0 -200.5 -80.5t-103.5 -203.5z" />
<glyph unicode="&#x118;" horiz-adv-x="1298" d="M400 1170v-398h652v-170h-652v-432h738v-170h-4q-84 -34 -147 -85.5t-63 -110.5q0 -44 28 -73t78 -29q54 0 108 36v-138q-3 -1 -24 -13t-34.5 -18t-39 -12.5t-50.5 -6.5q-97 0 -165.5 52t-68.5 146q0 48 22.5 92t57.5 75t69.5 52t66.5 33h-752v1340h918v-170h-738z" />
<glyph unicode="&#x119;" horiz-adv-x="1142" d="M1042 534v-98h-768q19 -131 113.5 -218.5t234.5 -87.5q51 0 96 10t85.5 30.5t62 34.5t56.5 39v-166q-44 -44 -124 -76h4q-86 -35 -150 -86.5t-64 -111.5q0 -44 28 -73t78 -29q54 0 108 36v-138q-2 -1 -23.5 -13t-35 -18t-39 -12.5t-50.5 -6.5q-97 0 -165.5 52t-68.5 146 q0 72 46 129.5t112 94.5q-138 11 -248 84t-170 188.5t-60 249.5q0 141 61 261.5t172.5 192.5t248.5 72q113 0 201.5 -37t144.5 -103.5t85 -154t29 -191.5zM278 576h602q-14 138 -99.5 211t-198.5 73q-119 0 -200.5 -80.5t-103.5 -203.5z" />
<glyph unicode="&#x11a;" horiz-adv-x="1298" d="M636 1502l-280 278h164l160 -156l160 156h164l-280 -278h-88zM400 1170v-398h652v-170h-652v-432h738v-170h-918v1340h918v-170h-738z" />
<glyph unicode="&#x11b;" horiz-adv-x="1142" d="M636 1162h-88l-280 278h164l160 -156l160 156h164zM1042 534v-98h-768q19 -131 113.5 -218.5t234.5 -87.5q51 0 96 10t85.5 30.5t62 34.5t56.5 39v-166q-40 -40 -118 -74t-182 -34q-148 0 -268.5 71.5t-187 191.5t-66.5 261t61 261.5t172.5 192.5t248.5 72 q113 0 201.5 -37t144.5 -103.5t85 -154t29 -191.5zM278 576h602q-14 138 -99.5 211t-198.5 73q-119 0 -200.5 -80.5t-103.5 -203.5z" />
<glyph unicode="&#x122;" horiz-adv-x="1402" d="M1322 732v-550q-81 -88 -217 -150t-299 -62q-198 0 -360.5 94.5t-254 255t-91.5 350.5t91.5 350.5t254 255t360.5 94.5q136 0 230 -37t172 -107v-198q-12 8 -46 33t-53.5 38.5t-57.5 34t-70.5 32t-79 20t-95.5 8.5q-225 0 -373.5 -149.5t-148.5 -374.5t148.5 -374.5 t373.5 -149.5q33 0 62.5 2.5t54.5 8t45 10.5t40 14.5t32 15t28 17.5t22 16t20 16.5t16 13.5l2 312h-336v160h530zM744 -140v96q88 0 151 -53t63 -135q0 -99 -65 -158.5t-141 -59.5q-72 0 -124 36v104q44 -36 108 -36q53 0 84.5 29.5t31.5 78.5q0 44 -33.5 71t-74.5 27z" />
<glyph unicode="&#x123;" d="M688 1160v-96q-88 0 -151 53t-63 135q0 99 65 158.5t141 59.5q72 0 124 -36v-104q-44 36 -108 36q-53 0 -84.5 -29.5t-31.5 -78.5q0 -44 33.5 -71t74.5 -27zM582 1020q86 0 175 -41.5t153 -112.5v134h164v-980q0 -130 -42 -233t-115 -167t-167 -97t-202 -33 q-66 0 -124 10t-104.5 28.5t-75 33t-62.5 36.5v176q2 -1 27.5 -16.5t40 -22.5t44.5 -22.5t55.5 -24t58.5 -19t68.5 -15t71.5 -4.5q152 0 257 83.5t105 226.5v210q-57 -87 -147 -143.5t-197 -56.5q-128 0 -234.5 64.5t-169 182.5t-62.5 267q0 243 136 389.5t346 146.5z M612 858q-154 0 -248 -110.5t-94 -263.5q0 -149 89.5 -250.5t232.5 -101.5q137 0 228 105t90 265l-2 192q-66 82 -137 123t-159 41z" />
<glyph unicode="&#x12a;" horiz-adv-x="1072" d="M894 1776v-160h-700v160h700zM852 1340v-170h-226v-1000h226v-170h-632v170h226v1000h-226v170h632z" />
<glyph unicode="&#x12b;" horiz-adv-x="880" d="M770 1436v-160h-700v160h700zM566 1000v-1000h-164v846h-158v154h322z" />
<glyph unicode="&#x12e;" horiz-adv-x="1072" d="M626 1170v-1000h226v-170h-226q-84 -34 -147 -85.5t-63 -110.5q0 -44 28 -73t78 -29q54 0 108 36v-138q-2 -1 -23.5 -13t-35 -18t-39 -12.5t-50.5 -6.5q-97 0 -165.5 52t-68.5 146q0 48 22.5 92t57.5 75t69.5 52t66.5 33h-244v170h226v1000h-226v170h632v-170h-226z" />
<glyph unicode="&#x12f;" horiz-adv-x="582" d="M296 1208q-57 0 -96.5 41t-39.5 95q0 55 39.5 95.5t96.5 40.5q56 0 96 -40.5t40 -95.5q0 -54 -40 -95t-96 -41zM398 2h34q-86 -35 -150 -86.5t-64 -111.5q0 -44 28 -73t78 -29q54 0 108 36v-138q-2 -1 -23.5 -13t-35 -18t-39 -12.5t-50.5 -6.5q-97 0 -165.5 52t-68.5 146 q0 48 22.5 92t57.5 75t69.5 52t66.5 33h-32v846h-158v154h322v-998z" />
<glyph unicode="&#x132;" horiz-adv-x="1702" d="M1482 1344v-1276q0 -100 -21.5 -182t-58 -142.5t-92.5 -109.5t-118.5 -82t-141.5 -62l-88 174q340 122 340 368v1312h180zM852 1340v-170h-226v-1000h226v-170h-632v170h226v1000h-226v170h632z" />
<glyph unicode="&#x133;" horiz-adv-x="1194" d="M330 1480q56 0 96 -40.5t40 -95.5q0 -54 -40 -95t-96 -41q-57 0 -96.5 41t-39.5 95q0 55 39.5 95.5t96.5 40.5zM918 1208q-57 0 -96.5 41t-39.5 95q0 55 39.5 95.5t96.5 40.5q56 0 96 -40.5t40 -95.5q0 -54 -40 -95t-96 -41zM432 1000v-1000h-164v846h-158v154h322z M1024 1000v-996q0 -373 -344 -514l-74 148q135 64 194.5 142.5t59.5 199.5v866h-158v154h322z" />
<glyph unicode="&#x136;" horiz-adv-x="1344" d="M1324 0h-250l-502 578l-172 -188v-390h-180v1340h180v-704l612 704h252l-562 -618zM548 -140v96q88 0 151 -53t63 -135q0 -99 -65 -158.5t-141 -59.5q-72 0 -124 36v104q44 -36 108 -36q53 0 84.5 29.5t31.5 78.5q0 44 -33.5 71t-74.5 27z" />
<glyph unicode="&#x137;" horiz-adv-x="1110" d="M1100 0h-208l-414 458l-144 -134v-324h-164v1440h164v-928l498 488h222l-462 -434zM488 -140v96q88 0 151 -53t63 -135q0 -99 -65 -158.5t-141 -59.5q-72 0 -124 36v104q44 -36 108 -36q53 0 84.5 29.5t31.5 78.5q0 44 -33.5 71t-74.5 27z" />
<glyph unicode="&#x139;" horiz-adv-x="1272" d="M402 1510h-164l220 270h228zM400 170h738v-170h-918v1340h180v-1170z" />
<glyph unicode="&#x13a;" horiz-adv-x="504" d="M312 1610h-164l220 270h228zM334 0h-164v1440h164v-1440z" />
<glyph unicode="&#x13b;" horiz-adv-x="1272" d="M400 170h738v-170h-918v1340h180v-1170zM584 -140v96q88 0 151 -53t63 -135q0 -99 -65 -158.5t-141 -59.5q-72 0 -124 36v104q44 -36 108 -36q53 0 84.5 29.5t31.5 78.5q0 44 -33.5 71t-74.5 27z" />
<glyph unicode="&#x13c;" horiz-adv-x="504" d="M334 0h-164v1440h164v-1440zM184 -140v96q88 0 151 -53t63 -135q0 -99 -65 -158.5t-141 -59.5q-72 0 -124 36v104q44 -36 108 -36q53 0 84.5 29.5t31.5 78.5q0 44 -33.5 71t-74.5 27z" />
<glyph unicode="&#x13d;" horiz-adv-x="1162" d="M724 1436l-60 -376h-134l20 376h174zM400 170h738v-170h-918v1340h180v-1170z" />
<glyph unicode="&#x13e;" horiz-adv-x="744" d="M334 0h-164v1440h164v-1440zM704 1436l-60 -376h-134l20 376h174z" />
<glyph unicode="&#x13f;" horiz-adv-x="1176" d="M400 170h738v-170h-918v1340h180v-1170zM818 924q57 0 98.5 -41t41.5 -99q0 -57 -41.5 -98.5t-98.5 -41.5q-58 0 -99 41.5t-41 98.5q0 58 41 99t99 41z" />
<glyph unicode="&#x140;" horiz-adv-x="750" d="M334 0h-164v1440h164v-1440zM570 1018q57 0 98.5 -41t41.5 -99q0 -57 -41.5 -98.5t-98.5 -41.5q-58 0 -99 41.5t-41 98.5q0 58 41 99t99 41z" />
<glyph unicode="&#x141;" horiz-adv-x="1272" d="M1138 170v-170h-918v614l-200 -148v152l200 148v574h180v-440l182 134v-152l-182 -134v-578h738z" />
<glyph unicode="&#x142;" horiz-adv-x="602" d="M582 882l-218 -162v-720h-164v600l-180 -134v152l180 134v688h164v-568l218 162v-152z" />
<glyph unicode="&#x143;" horiz-adv-x="1558" d="M834 1510h-164l220 270h228zM1338 0h-72l-866 958v-958h-180v1340h72l866 -970v970h180v-1340z" />
<glyph unicode="&#x144;" horiz-adv-x="1170" d="M672 1170h-164l220 270h228zM660 1020q161 0 265.5 -106t104.5 -304v-610h-164l-2 594q0 266 -232 266q-75 0 -153.5 -55.5t-144.5 -140.5v-664h-164v1000h164v-158q55 69 144 123.5t182 54.5z" />
<glyph unicode="&#x145;" horiz-adv-x="1558" d="M1338 0h-72l-866 958v-958h-180v1340h72l866 -970v970h180v-1340zM710 -140v96q88 0 151 -53t63 -135q0 -99 -65 -158.5t-141 -59.5q-72 0 -124 36v104q44 -36 108 -36q53 0 84.5 29.5t31.5 78.5q0 44 -33.5 71t-74.5 27z" />
<glyph unicode="&#x146;" horiz-adv-x="1170" d="M660 1020q161 0 265.5 -106t104.5 -304v-610h-164l-2 594q0 266 -232 266q-75 0 -153.5 -55.5t-144.5 -140.5v-664h-164v1000h164v-158q55 69 144 123.5t182 54.5zM528 -140v96q88 0 151 -53t63 -135q0 -99 -65 -158.5t-141 -59.5q-72 0 -124 36v104q44 -36 108 -36 q53 0 84.5 29.5t31.5 78.5q0 44 -33.5 71t-74.5 27z" />
<glyph unicode="&#x147;" horiz-adv-x="1558" d="M614 1780l160 -156l160 156h164l-280 -278h-88l-280 278h164zM1338 0h-72l-866 958v-958h-180v1340h72l866 -970v970h180v-1340z" />
<glyph unicode="&#x148;" horiz-adv-x="1170" d="M568 1162l-280 278h164l160 -156l160 156h164l-280 -278h-88zM660 1020q161 0 265.5 -106t104.5 -304v-610h-164l-2 594q0 266 -232 266q-75 0 -153.5 -55.5t-144.5 -140.5v-664h-164v1000h164v-158q55 69 144 123.5t182 54.5z" />
<glyph unicode="&#x14a;" horiz-adv-x="1512" d="M1226 70l-4 4v-6q0 -100 -21.5 -182t-58 -142.5t-92.5 -109.5t-118.5 -82t-141.5 -62l-88 174q340 122 340 368v234l-628 672v-938h-194v1340h72l750 -802v806h180v-1000l70 -74z" />
<glyph unicode="&#x14b;" horiz-adv-x="1170" d="M660 1020q161 0 265.5 -106t104.5 -304v-636q0 -169 -91.5 -293.5t-252.5 -190.5l-74 148q133 63 193.5 146.5t60.5 205.5v10l-2 594q0 266 -232 266q-75 0 -153.5 -55.5t-144.5 -140.5v-664h-164v1000h164v-158q55 69 144 123.5t182 54.5z" />
<glyph unicode="&#x14c;" horiz-adv-x="1612" d="M1156 1616h-700v160h700v-160zM806 1370q198 0 360.5 -94.5t254 -255t91.5 -350.5t-91.5 -350.5t-254 -255t-360.5 -94.5t-360.5 94.5t-254 255t-91.5 350.5t91.5 350.5t254 255t360.5 94.5zM806 1194q-225 0 -373.5 -149.5t-148.5 -374.5t148.5 -374.5t373.5 -149.5 t373.5 149.5t148.5 374.5t-148.5 374.5t-373.5 149.5z" />
<glyph unicode="&#x14d;" d="M972 1276h-700v160h700v-160zM622 1020q111 0 209 -42.5t166.5 -114t107.5 -168t39 -201.5q0 -141 -66.5 -261t-187 -191.5t-268.5 -71.5t-268.5 71.5t-187 191.5t-66.5 261q0 105 39 201.5t107.5 168t166.5 114t209 42.5zM622 860q-156 0 -254 -107.5t-98 -258.5 q0 -150 98 -257t254 -107t254 107t98 257q0 151 -98 258.5t-254 107.5z" />
<glyph unicode="&#x150;" horiz-adv-x="1612" d="M664 1510h-164l220 270h228zM966 1510h-164l220 270h228zM806 1370q198 0 360.5 -94.5t254 -255t91.5 -350.5t-91.5 -350.5t-254 -255t-360.5 -94.5t-360.5 94.5t-254 255t-91.5 350.5t91.5 350.5t254 255t360.5 94.5zM806 1194q-225 0 -373.5 -149.5t-148.5 -374.5 t148.5 -374.5t373.5 -149.5t373.5 149.5t148.5 374.5t-148.5 374.5t-373.5 149.5z" />
<glyph unicode="&#x151;" d="M480 1170h-164l220 270h228zM782 1170h-164l220 270h228zM622 1020q111 0 209 -42.5t166.5 -114t107.5 -168t39 -201.5q0 -141 -66.5 -261t-187 -191.5t-268.5 -71.5t-268.5 71.5t-187 191.5t-66.5 261q0 105 39 201.5t107.5 168t166.5 114t209 42.5zM622 860 q-156 0 -254 -107.5t-98 -258.5q0 -150 98 -257t254 -107t254 107t98 257q0 151 -98 258.5t-254 107.5z" />
<glyph unicode="&#x152;" horiz-adv-x="2076" d="M100 670q0 188 96 342.5t258 241t352 86.5h186v-190h-186q-216 0 -359 -130.5t-143 -349.5t143 -349.5t359 -130.5h186v-190h-186q-190 0 -352 86.5t-258 241t-96 342.5zM1178 1170v-398h652v-170h-652v-432h738v-170h-918v1340h918v-170h-738z" />
<glyph unicode="&#x153;" horiz-adv-x="2028" d="M1928 534v-98h-768q19 -131 113.5 -218.5t234.5 -87.5q51 0 96 10t85.5 30.5t62 34.5t56.5 39v-166q-40 -40 -118 -74t-182 -34q-142 0 -258 65.5t-184 176.5q-69 -111 -185.5 -176.5t-258.5 -65.5q-148 0 -268.5 71.5t-187 191.5t-66.5 261q0 105 39 201.5t107.5 168 t166.5 114t209 42.5q141 0 256 -64t184 -174q63 109 169.5 173.5t236.5 64.5q113 0 201.5 -37t144.5 -103.5t85 -154t29 -191.5zM622 130q156 0 254 107t98 257q0 151 -98 258.5t-254 107.5t-254 -107.5t-98 -258.5q0 -150 98 -257t254 -107zM1164 576h602 q-14 138 -99.5 211t-198.5 73q-119 0 -200.5 -80.5t-103.5 -203.5z" />
<glyph unicode="&#x154;" horiz-adv-x="1332" d="M676 1510h-164l220 270h228zM1036 0l-636 564v-564h-180v1340h514q70 0 136.5 -15t126.5 -47.5t105 -78.5t71.5 -113.5t26.5 -147.5q0 -90 -41.5 -164.5t-110 -121t-152 -71.5t-172.5 -25q-40 0 -66 2l654 -558h-276zM400 1170v-430q139 -38 298 -38q150 0 234 63.5 t84 172.5t-89 170.5t-223 61.5h-304z" />
<glyph unicode="&#x155;" horiz-adv-x="804" d="M514 1170h-164l220 270h228zM334 1000v-200q58 100 140.5 160t167.5 60q66 0 122 -28v-196q-68 52 -146 52q-49 0 -90.5 -18t-76 -55t-60 -75t-57.5 -96v-604h-164v1000h164z" />
<glyph unicode="&#x156;" horiz-adv-x="1332" d="M1312 0h-276l-636 564v-564h-180v1340h514q70 0 136.5 -15t126.5 -47.5t105 -78.5t71.5 -113.5t26.5 -147.5q0 -90 -41.5 -164.5t-110 -121t-152 -71.5t-172.5 -25q-40 0 -66 2zM400 1170v-430q139 -38 298 -38q150 0 234 63.5t84 172.5t-89 170.5t-223 61.5h-304z M664 -140v96q88 0 151 -53t63 -135q0 -99 -65 -158.5t-141 -59.5q-72 0 -124 36v104q44 -36 108 -36q53 0 84.5 29.5t31.5 78.5q0 44 -33.5 71t-74.5 27z" />
<glyph unicode="&#x157;" horiz-adv-x="804" d="M642 1020q66 0 122 -28v-196q-68 52 -146 52q-49 0 -90.5 -18t-76 -55t-60 -75t-57.5 -96v-604h-164v1000h164v-200q58 100 140.5 160t167.5 60zM192 -140v96q88 0 151 -53t63 -135q0 -99 -65 -158.5t-141 -59.5q-72 0 -124 36v104q44 -36 108 -36q53 0 84.5 29.5 t31.5 78.5q0 44 -33.5 71t-74.5 27z" />
<glyph unicode="&#x158;" horiz-adv-x="1332" d="M572 1502l-280 278h164l160 -156l160 156h164l-280 -278h-88zM1036 0l-636 564v-564h-180v1340h514q70 0 136.5 -15t126.5 -47.5t105 -78.5t71.5 -113.5t26.5 -147.5q0 -90 -41.5 -164.5t-110 -121t-152 -71.5t-172.5 -25q-40 0 -66 2l654 -558h-276zM400 1170v-430 q139 -38 298 -38q150 0 234 63.5t84 172.5t-89 170.5t-223 61.5h-304z" />
<glyph unicode="&#x159;" horiz-adv-x="804" d="M410 1162l-280 278h164l160 -156l160 156h164l-280 -278h-88zM334 1000v-200q58 100 140.5 160t167.5 60q66 0 122 -28v-196q-68 52 -146 52q-49 0 -90.5 -18t-76 -55t-60 -75t-57.5 -96v-604h-164v1000h164z" />
<glyph unicode="&#x15a;" horiz-adv-x="1046" d="M606 1510h-164l220 270h228zM544 1360q74 0 140.5 -18t103 -37t86.5 -51v-186q-157 116 -310 116q-66 0 -127 -20.5t-106 -69t-45 -116.5q0 -39 14 -69t45.5 -54.5t59.5 -40t79 -38.5l184 -84q145 -66 211.5 -142.5t66.5 -197.5q0 -106 -63.5 -192t-168.5 -133t-228 -47 q-200 0 -384 130v186q202 -140 408 -140q105 0 178.5 51.5t73.5 136.5q0 35 -17 66t-49 55t-60 39t-66 32l-222 100q-138 62 -193 145.5t-55 202.5q0 104 61 191t163 136t220 49z" />
<glyph unicode="&#x15b;" horiz-adv-x="856" d="M808 1440l-284 -270h-164l220 270h228zM468 1020q82 0 158.5 -23.5t115.5 -52.5v-176q-48 36 -120.5 64t-141.5 28q-88 0 -138 -41.5t-50 -94.5q0 -42 29 -80t93 -60l168 -60q194 -69 194 -248q0 -129 -104.5 -217.5t-263.5 -88.5q-82 0 -175 29.5t-133 58.5v176 q48 -36 137.5 -70t158.5 -34q93 0 148.5 41t55.5 105q0 46 -34 74.5t-110 55.5l-148 54q-109 41 -150.5 105.5t-41.5 158.5q0 129 97 212.5t255 83.5z" />
<glyph unicode="&#x15e;" horiz-adv-x="1046" d="M946 352q0 -141 -106 -241t-266 -125l-10 -126q82 10 137 -35t55 -119q0 -81 -59.5 -133.5t-160.5 -52.5q-35 0 -81 13.5t-75 36.5l14 110q80 -42 148 -42q34 0 56 17.5t22 44.5t-20.5 42.5t-57.5 15.5t-70 -18l-32 24l26 216q-188 8 -364 130v186q202 -140 408 -140 q105 0 178.5 51.5t73.5 136.5q0 35 -17 66t-49 55t-60 39t-66 32l-222 100q-138 62 -193 145.5t-55 202.5q0 104 61 191t163 136t220 49q74 0 140.5 -18t103 -37t86.5 -51v-186q-157 116 -310 116q-66 0 -127 -20.5t-106 -69t-45 -116.5q0 -39 14 -69t45.5 -54.5t59.5 -40 t79 -38.5l184 -84q145 -66 211.5 -142.5t66.5 -197.5z" />
<glyph unicode="&#x15f;" horiz-adv-x="856" d="M776 276q0 -117 -87.5 -202.5t-226.5 -101.5l-10 -112q82 10 137 -35t55 -119q0 -81 -59.5 -133.5t-160.5 -52.5q-35 0 -81 13.5t-75 36.5l14 110q80 -42 148 -42q34 0 56 17.5t22 44.5t-20.5 42.5t-57.5 15.5t-70 -18l-32 24l24 210q-73 8 -146.5 34.5t-105.5 49.5v176 q48 -36 137.5 -70t158.5 -34q93 0 148.5 41t55.5 105q0 46 -34 74.5t-110 55.5l-148 54q-109 41 -150.5 105.5t-41.5 158.5q0 129 97 212.5t255 83.5q82 0 158.5 -23.5t115.5 -52.5v-176q-48 36 -120.5 64t-141.5 28q-88 0 -138 -41.5t-50 -94.5q0 -42 29 -80t93 -60 l168 -60q194 -69 194 -248z" />
<glyph unicode="&#x160;" horiz-adv-x="1046" d="M386 1780l160 -156l160 156h164l-280 -278h-88l-280 278h164zM544 1360q74 0 140.5 -18t103 -37t86.5 -51v-186q-157 116 -310 116q-66 0 -127 -20.5t-106 -69t-45 -116.5q0 -39 14 -69t45.5 -54.5t59.5 -40t79 -38.5l184 -84q145 -66 211.5 -142.5t66.5 -197.5 q0 -106 -63.5 -192t-168.5 -133t-228 -47q-200 0 -384 130v186q202 -140 408 -140q105 0 178.5 51.5t73.5 136.5q0 35 -17 66t-49 55t-60 39t-66 32l-222 100q-138 62 -193 145.5t-55 202.5q0 104 61 191t163 136t220 49z" />
<glyph unicode="&#x161;" horiz-adv-x="856" d="M140 1440h164l160 -156l160 156h164l-280 -278h-88zM468 1020q82 0 158.5 -23.5t115.5 -52.5v-176q-48 36 -120.5 64t-141.5 28q-88 0 -138 -41.5t-50 -94.5q0 -42 29 -80t93 -60l168 -60q194 -69 194 -248q0 -129 -104.5 -217.5t-263.5 -88.5q-82 0 -175 29.5t-133 58.5 v176q48 -36 137.5 -70t158.5 -34q93 0 148.5 41t55.5 105q0 46 -34 74.5t-110 55.5l-148 54q-109 41 -150.5 105.5t-41.5 158.5q0 129 97 212.5t255 83.5z" />
<glyph unicode="&#x162;" horiz-adv-x="1222" d="M1164 1340v-170h-462v-1164h-180v1164h-462v170h1104zM664 4l-12 -144q82 10 137 -35t55 -119q0 -81 -59.5 -133.5t-160.5 -52.5q-35 0 -81 13.5t-75 36.5l14 110q80 -42 148 -42q34 0 56 17.5t22 44.5t-20.5 42.5t-57.5 15.5t-70 -18l-32 24l28 240h108z" />
<glyph unicode="&#x163;" horiz-adv-x="866" d="M746 174v-134q-41 -33 -83.5 -50t-104.5 -20l-10 -110q82 10 137 -35t55 -119q0 -81 -59.5 -133.5t-160.5 -52.5q-35 0 -81 13.5t-75 36.5l14 110q80 -42 148 -42q34 0 56 17.5t22 44.5t-20.5 42.5t-57.5 15.5t-70 -18l-32 24l26 218q-83 25 -125.5 95.5t-42.5 174.5v594 h-192v48q94 42 161 140t119 254h76v-288h292v-154h-292v-586q0 -64 32.5 -99t97.5 -35q90 0 170 48z" />
<glyph unicode="&#x164;" horiz-adv-x="1222" d="M568 1502l-280 278h164l160 -156l160 156h164l-280 -278h-88zM1164 1170h-462v-1164h-180v1164h-462v170h1104v-170z" />
<glyph unicode="&#x165;" horiz-adv-x="884" d="M764 1436l-60 -376h-134l20 376h174zM446 1000h292v-154h-292v-586q0 -64 32.5 -99t97.5 -35q90 0 170 48v-134q-46 -36 -91 -53t-115 -17q-125 0 -191.5 76t-66.5 206v594h-192v48q94 42 161 140t119 254h76v-288z" />
<glyph unicode="&#x166;" horiz-adv-x="1222" d="M962 1616h-700v160h700v-160zM1164 1170h-462v-1164h-180v1164h-462v170h1104v-170z" />
<glyph unicode="&#x167;" horiz-adv-x="856" d="M576 126q90 0 170 48v-134q-46 -36 -91 -53t-115 -17q-125 0 -191.5 76t-66.5 206v194h-196v140h196v260h-192v48q94 42 161 140t119 254h76v-288h292v-154h-292v-260h280v-140h-280v-186q0 -64 32.5 -99t97.5 -35z" />
<glyph unicode="&#x16a;" horiz-adv-x="1504" d="M1102 1616h-700v160h700v-160zM1304 1344v-814q0 -171 -73 -298.5t-197 -192.5t-282 -65t-282 65t-197 192.5t-73 298.5v814h180v-808q0 -99 29.5 -173.5t82 -118.5t118 -65.5t142.5 -20.5q78 1 143 22.5t117.5 65t82 117.5t29.5 173v808h180z" />
<glyph unicode="&#x16b;" horiz-adv-x="1128" d="M924 1276h-700v160h700v-160zM988 1000v-592q0 -194 -120 -311t-304 -117t-304 117t-120 311v592h170v-592q0 -125 74 -196.5t180 -71.5t180 71.5t74 196.5v592h170z" />
<glyph unicode="&#x16e;" horiz-adv-x="1504" d="M752 1790q71 0 117.5 -48.5t46.5 -117.5t-46.5 -117.5t-117.5 -48.5t-118.5 48.5t-47.5 117.5t47.5 117.5t118.5 48.5zM752 1708q-34 0 -58 -25t-24 -59q0 -35 24 -59.5t58 -24.5q33 0 56.5 24.5t23.5 59.5q0 33 -23.5 58.5t-56.5 25.5zM1304 1344v-814 q0 -171 -73 -298.5t-197 -192.5t-282 -65t-282 65t-197 192.5t-73 298.5v814h180v-808q0 -99 29.5 -173.5t82 -118.5t118 -65.5t142.5 -20.5q78 1 143 22.5t117.5 65t82 117.5t29.5 173v808h180z" />
<glyph unicode="&#x16f;" horiz-adv-x="1128" d="M574 1450q71 0 117.5 -48.5t46.5 -117.5t-46.5 -117.5t-117.5 -48.5t-118.5 48.5t-47.5 117.5t47.5 117.5t118.5 48.5zM574 1368q-34 0 -58 -25t-24 -59q0 -35 24 -59.5t58 -24.5q33 0 56.5 24.5t23.5 59.5q0 33 -23.5 58.5t-56.5 25.5zM988 1000v-592q0 -194 -120 -311 t-304 -117t-304 117t-120 311v592h170v-592q0 -125 74 -196.5t180 -71.5t180 71.5t74 196.5v592h170z" />
<glyph unicode="&#x170;" horiz-adv-x="1504" d="M610 1510h-164l220 270h228zM912 1510h-164l220 270h228zM1304 1344v-814q0 -171 -73 -298.5t-197 -192.5t-282 -65t-282 65t-197 192.5t-73 298.5v814h180v-808q0 -99 29.5 -173.5t82 -118.5t118 -65.5t142.5 -20.5q78 1 143 22.5t117.5 65t82 117.5t29.5 173v808h180z " />
<glyph unicode="&#x171;" horiz-adv-x="1128" d="M432 1170h-164l220 270h228zM734 1170h-164l220 270h228zM988 1000v-592q0 -194 -120 -311t-304 -117t-304 117t-120 311v592h170v-592q0 -125 74 -196.5t180 -71.5t180 71.5t74 196.5v592h170z" />
<glyph unicode="&#x172;" horiz-adv-x="1504" d="M1304 1344v-814q0 -214 -110 -355.5t-292 -184.5q-79 -36 -133.5 -83.5t-54.5 -102.5q0 -44 28 -73t78 -29q54 0 108 36v-138q-3 -1 -24 -13t-34.5 -18t-39 -12.5t-50.5 -6.5q-97 0 -165.5 52t-68.5 146q0 73 48.5 131.5t115.5 96.5q-226 14 -368 161.5t-142 392.5v814 h180v-808q0 -99 29.5 -173.5t82 -118.5t118 -65.5t142.5 -20.5q78 1 143 22.5t117.5 65t82 117.5t29.5 173v808h180z" />
<glyph unicode="&#x173;" horiz-adv-x="1128" d="M988 1000v-592q0 -152 -76 -259t-202 -147h24q-86 -35 -150 -86.5t-64 -111.5q0 -44 28 -73t78 -29q54 0 108 36v-138q-2 -1 -23.5 -13t-35 -18t-39 -12.5t-50.5 -6.5q-97 0 -165.5 52t-68.5 146q0 77 52 137t122 97q-169 12 -277.5 127.5t-108.5 298.5v592h170v-592 q0 -125 74 -196.5t180 -71.5t180 71.5t74 196.5v592h170z" />
<glyph unicode="&#x174;" horiz-adv-x="1888" d="M1268 1502h-164l-160 156l-160 -156h-164l280 278h88zM1398 0h-102l-360 1014l-364 -1014h-102l-450 1340h196l314 -996l354 996l116 -2l344 -994l328 996h196z" />
<glyph unicode="&#x175;" horiz-adv-x="1512" d="M1082 1162h-164l-160 156l-160 -156h-164l280 278h88zM1132 0h-102l-274 706l-274 -706h-102l-350 1000h196l222 -702l262 702h92l262 -702l222 702h196z" />
<glyph unicode="&#x176;" horiz-adv-x="1262" d="M472 1502h-164l280 278h88l280 -278h-164l-160 156zM728 550v-550h-194v524l-514 816h216l392 -632l398 632h216z" />
<glyph unicode="&#x177;" horiz-adv-x="1142" d="M410 1162h-164l280 278h88l280 -278h-164l-160 156zM1112 1000l-736 -1480h-190l286 540l-442 940h196l350 -736l340 736h196z" />
<glyph unicode="&#x178;" horiz-adv-x="1262" d="M422 1526q-52 0 -89 37.5t-37 88.5q0 52 37 89t89 37q51 0 88.5 -37t37.5 -89q0 -51 -37.5 -88.5t-88.5 -37.5zM842 1526q-52 0 -89 37.5t-37 88.5q0 52 37 89t89 37q51 0 88.5 -37t37.5 -89q0 -51 -37.5 -88.5t-88.5 -37.5zM728 550v-550h-194v524l-514 816h216 l392 -632l398 632h216z" />
<glyph unicode="&#x179;" horiz-adv-x="1302" d="M712 1510h-164l220 270h228zM1168 1268l-766 -1098h766v-170h-1034v72l744 1098h-744v170h1034v-72z" />
<glyph unicode="&#x17a;" horiz-adv-x="1098" d="M610 1170h-164l220 270h228zM968 946l-602 -792h622v-154h-878v54l582 792h-542v154h818v-54z" />
<glyph unicode="&#x17b;" horiz-adv-x="1302" d="M652 1780q51 0 88.5 -37t37.5 -89q0 -51 -37.5 -88.5t-88.5 -37.5q-52 0 -89 37.5t-37 88.5q0 52 37 89t89 37zM1168 1268l-766 -1098h766v-170h-1034v72l744 1098h-744v170h1034v-72z" />
<glyph unicode="&#x17c;" horiz-adv-x="1098" d="M550 1440q51 0 88.5 -37t37.5 -89q0 -51 -37.5 -88.5t-88.5 -37.5q-52 0 -89 37.5t-37 88.5q0 52 37 89t89 37zM968 946l-602 -792h622v-154h-878v54l582 792h-542v154h818v-54z" />
<glyph unicode="&#x17d;" horiz-adv-x="1302" d="M492 1780l160 -156l160 156h164l-280 -278h-88l-280 278h164zM1168 1268l-766 -1098h766v-170h-1034v72l744 1098h-744v170h1034v-72z" />
<glyph unicode="&#x17e;" horiz-adv-x="1098" d="M390 1440l160 -156l160 156h164l-280 -278h-88l-280 278h164zM968 946l-602 -792h622v-154h-878v54l582 792h-542v154h818v-54z" />
<glyph unicode="&#x2c6;" horiz-adv-x="968" d="M808 1162h-164l-160 156l-160 -156h-164l280 278h88z" />
<glyph unicode="&#x2c7;" horiz-adv-x="968" d="M324 1440l160 -156l160 156h164l-280 -278h-88l-280 278h164z" />
<glyph unicode="&#x2d8;" horiz-adv-x="968" d="M664 1440h144q-4 -136 -95.5 -218t-228.5 -82t-228.5 82t-95.5 218h144q9 -74 56 -119t124 -45t124 45t56 119z" />
<glyph unicode="&#x2d9;" horiz-adv-x="600" d="M300 1440q51 0 88.5 -37t37.5 -89q0 -51 -37.5 -88.5t-88.5 -37.5q-52 0 -89 37.5t-37 88.5q0 52 37 89t89 37z" />
<glyph unicode="&#x2da;" horiz-adv-x="650" d="M326 1450q71 0 117.5 -48.5t46.5 -117.5t-46.5 -117.5t-117.5 -48.5t-118.5 48.5t-47.5 117.5t47.5 117.5t118.5 48.5zM326 1368q-34 0 -58 -25t-24 -59q0 -35 24 -59.5t58 -24.5q33 0 56.5 24.5t23.5 59.5q0 33 -23.5 58.5t-56.5 25.5z" />
<glyph unicode="&#x2db;" horiz-adv-x="1200" d="M588 2h160q-86 -35 -150 -86.5t-64 -111.5q0 -44 28 -73t78 -29q54 0 108 36v-138q-2 -1 -23.5 -13t-35 -18t-39 -12.5t-50.5 -6.5q-97 0 -165.5 52t-68.5 146q0 49 23.5 94t60.5 76.5t71.5 52t66.5 31.5z" />
<glyph unicode="&#x2dc;" horiz-adv-x="940" d="M684 1440h136q0 -88 -59 -147t-149 -59q-49 0 -89 16t-60.5 35t-48 35t-54.5 16q-33 0 -52.5 -26.5t-19.5 -65.5h-136q0 88 59 147t149 59q49 0 89 -16t60.5 -35t48 -35t54.5 -16q34 0 53 26t19 66z" />
<glyph unicode="&#x2dd;" horiz-adv-x="950" d="M264 1170h-164l220 270h228zM566 1170h-164l220 270h228z" />
<glyph unicode="&#x326;" horiz-adv-x="0" d="M236 -140v96q88 0 151 -53t63 -135q0 -99 -65 -158.5t-141 -59.5q-72 0 -124 36v104q44 -36 108 -36q53 0 84.5 29.5t31.5 78.5q0 44 -33.5 71t-74.5 27z" />
<glyph unicode="&#x1e80;" horiz-adv-x="1888" d="M814 1780l220 -270h-164l-284 270h228zM1398 0h-102l-360 1014l-364 -1014h-102l-450 1340h196l314 -996l354 996l116 -2l344 -994l328 996h196z" />
<glyph unicode="&#x1e81;" horiz-adv-x="1512" d="M628 1440l220 -270h-164l-284 270h228zM1132 0h-102l-274 706l-274 -706h-102l-350 1000h196l222 -702l262 702h92l262 -702l222 702h196z" />
<glyph unicode="&#x1e82;" horiz-adv-x="1888" d="M1004 1510h-164l220 270h228zM1398 0h-102l-360 1014l-364 -1014h-102l-450 1340h196l314 -996l354 996l116 -2l344 -994l328 996h196z" />
<glyph unicode="&#x1e83;" horiz-adv-x="1512" d="M818 1170h-164l220 270h228zM1132 0h-102l-274 706l-274 -706h-102l-350 1000h196l222 -702l262 702h92l262 -702l222 702h196z" />
<glyph unicode="&#x1e84;" horiz-adv-x="1888" d="M734 1778q51 0 88.5 -37t37.5 -89q0 -51 -37.5 -88.5t-88.5 -37.5q-52 0 -89 37.5t-37 88.5q0 52 37 89t89 37zM1154 1778q51 0 88.5 -37t37.5 -89q0 -51 -37.5 -88.5t-88.5 -37.5q-52 0 -89 37.5t-37 88.5q0 52 37 89t89 37zM1398 0h-102l-360 1014l-364 -1014h-102 l-450 1340h196l314 -996l354 996l116 -2l344 -994l328 996h196z" />
<glyph unicode="&#x1e85;" horiz-adv-x="1512" d="M548 1438q51 0 88.5 -37t37.5 -89q0 -51 -37.5 -88.5t-88.5 -37.5q-52 0 -89 37.5t-37 88.5q0 52 37 89t89 37zM968 1438q51 0 88.5 -37t37.5 -89q0 -51 -37.5 -88.5t-88.5 -37.5q-52 0 -89 37.5t-37 88.5q0 52 37 89t89 37zM1132 0h-102l-274 706l-274 -706h-102 l-350 1000h196l222 -702l262 702h92l262 -702l222 702h196z" />
<glyph unicode="&#x1ef2;" horiz-adv-x="1262" d="M558 1510l-284 270h228l220 -270h-164zM728 550v-550h-194v524l-514 816h216l392 -632l398 632h216z" />
<glyph unicode="&#x1ef3;" horiz-adv-x="1142" d="M496 1170l-284 270h228l220 -270h-164zM1112 1000l-736 -1480h-190l286 540l-442 940h196l350 -736l340 736h196z" />
<glyph unicode="&#x2000;" horiz-adv-x="940" />
<glyph unicode="&#x2001;" horiz-adv-x="1880" />
<glyph unicode="&#x2002;" horiz-adv-x="940" />
<glyph unicode="&#x2003;" horiz-adv-x="1880" />
<glyph unicode="&#x2004;" horiz-adv-x="626" />
<glyph unicode="&#x2005;" horiz-adv-x="470" />
<glyph unicode="&#x2006;" horiz-adv-x="313" />
<glyph unicode="&#x2007;" horiz-adv-x="313" />
<glyph unicode="&#x2008;" horiz-adv-x="235" />
<glyph unicode="&#x2009;" horiz-adv-x="376" />
<glyph unicode="&#x200a;" horiz-adv-x="104" />
<glyph unicode="&#x2010;" horiz-adv-x="842" d="M722 416h-602v180h602v-180z" />
<glyph unicode="&#x2011;" horiz-adv-x="842" d="M722 416h-602v180h602v-180z" />
<glyph unicode="&#x2012;" horiz-adv-x="842" d="M722 416h-602v180h602v-180z" />
<glyph unicode="&#x2013;" horiz-adv-x="1220" d="M1100 416h-980v180h980v-180z" />
<glyph unicode="&#x2014;" horiz-adv-x="1776" d="M1656 416h-1536v180h1536v-180z" />
<glyph unicode="&#x2018;" horiz-adv-x="464" d="M424 1344l-180 -538l-164 56l220 514z" />
<glyph unicode="&#x2019;" horiz-adv-x="424" d="M384 1320l-220 -514l-124 32l180 538z" />
<glyph unicode="&#x201a;" horiz-adv-x="624" d="M404 180l-180 -534l-124 32l140 558z" />
<glyph unicode="&#x201c;" horiz-adv-x="864" d="M424 1404l-180 -538l-164 56l220 514zM784 1404l-180 -538l-164 56l220 514z" />
<glyph unicode="&#x201d;" horiz-adv-x="864" d="M80 886l180 538l164 -56l-220 -514zM440 886l180 538l164 -56l-220 -514z" />
<glyph unicode="&#x201e;" horiz-adv-x="544" d="M364 180l-180 -534l-124 32l140 558z" />
<glyph unicode="&#x2020;" horiz-adv-x="886" d="M806 880h-266v-1080h-194v1080h-266v160h266v300h194v-300h266v-160z" />
<glyph unicode="&#x2021;" horiz-adv-x="1200" d="M540 880v-350h266v-160h-266v-570h-194v570h-266v160h266v350h-266v160h266v300h194v-300h266v-160h-266z" />
<glyph unicode="&#x2022;" horiz-adv-x="846" d="M422 870q108 0 186 -77.5t78 -186.5q0 -107 -78 -184.5t-186 -77.5q-109 0 -185.5 77.5t-76.5 184.5q0 110 76.5 187t185.5 77z" />
<glyph unicode="&#x2026;" horiz-adv-x="1680" d="M300 244q57 0 98.5 -41t41.5 -99q0 -57 -41.5 -98.5t-98.5 -41.5q-58 0 -99 41.5t-41 98.5q0 58 41 99t99 41zM840 244q57 0 98.5 -41t41.5 -99q0 -57 -41.5 -98.5t-98.5 -41.5q-58 0 -99 41.5t-41 98.5q0 58 41 99t99 41zM1380 244q57 0 98.5 -41t41.5 -99 q0 -57 -41.5 -98.5t-98.5 -41.5q-58 0 -99 41.5t-41 98.5q0 58 41 99t99 41z" />
<glyph unicode="&#x202f;" horiz-adv-x="376" />
<glyph unicode="&#x205f;" horiz-adv-x="470" />
<glyph unicode="&#x20ac;" horiz-adv-x="1234" d="M792 1194q-147 0 -239 -90.5t-125 -247.5h516v-140h-534v-46q0 -44 2 -64h532v-140h-512q36 -150 127 -235t233 -85q186 0 322 116v-180q-72 -58 -147.5 -85t-174.5 -27q-215 0 -357 136.5t-189 359.5h-146v140h128q-2 22 -2 64v46h-126v140h142q44 230 187 372t363 142 q100 0 191 -41t151 -103v-198q-166 166 -342 166z" />
<glyph unicode="&#x2122;" horiz-adv-x="1022" d="M80 1342h380v-84h-138v-324h-104v324h-138v84zM942 1340v-406h-106v196l-84 -128h-36l-92 128v-196h-106v406h54l162 -214l156 214h52z" />
<glyph unicode="&#x2212;" horiz-adv-x="1102" d="M942 536h-782v180h782v-180z" />
<glyph unicode="&#x2248;" horiz-adv-x="1048" d="M764 978h164q0 -106 -71.5 -178t-180.5 -72q-59 0 -107 19.5t-73.5 42.5t-58 42.5t-65.5 19.5q-40 0 -64 -32.5t-24 -79.5h-164q0 106 71.5 178t180.5 72q59 0 107 -19.5t73.5 -42.5t58 -42.5t65.5 -19.5q42 0 65 32t23 80zM764 548h164q0 -106 -71.5 -178t-180.5 -72 q-59 0 -107 19.5t-73.5 42.5t-58 42.5t-65.5 19.5q-40 0 -64 -32.5t-24 -79.5h-164q0 106 71.5 178t180.5 72q59 0 107 -19.5t73.5 -42.5t58 -42.5t65.5 -19.5q42 0 65 32t23 80z" />
<glyph unicode="&#x2260;" horiz-adv-x="1102" d="M676 716l-108 -190h374v-180h-476l-102 -182h-136l102 182h-170v180h270l106 190h-376v180h476l70 124h142l-70 -124h164v-180h-266z" />
<glyph unicode="&#x2264;" horiz-adv-x="1066" d="M906 1042l-566 -316l566 -338v-162l-746 456v84l746 438v-162zM906 148v-148h-746v148h746z" />
<glyph unicode="&#x2265;" horiz-adv-x="1066" d="M906 766v-84l-746 -456v162l566 338l-566 316v162zM906 0h-746v148h746v-148z" />
<glyph unicode="&#x25fc;" horiz-adv-x="1000" d="M0 1000h1000v-1000h-1000v1000z" />
<glyph horiz-adv-x="602" d="M432 1000v-1000h-164v846h-158v154h322z" />
</font>
</defs>
</svg>
